<svg version="1.1" xmlns="http://www.w3.org/2000/svg" viewBox="0 0 371.55047607421875 258.56280517578125" width="371.55047607421875" height="258.56280517578125">
  <!-- svg-source:excalidraw -->
  
  <defs>
    <style>
      @font-face {
        font-family: "Virgil";
        src: url("https://excalidraw.com/Virgil.woff2");
      }
      @font-face {
        font-family: "Cascadia";
        src: url("https://excalidraw.com/Cascadia.woff2");
      }
    </style>
  </defs>
  <g stroke-linecap="round" transform="translate(10 10) rotate(0 49 24.76568603515625)"><path d="M-1.47 0.49 C30.81 -1.74, 61.83 -1.57, 98.05 -1.22 M-0.29 -0.43 C31.07 0.33, 63.74 -0.34, 98.5 0.05 M96.6 0.96 C96.4 11.58, 100.14 22.43, 97.83 50.9 M98.06 0.26 C98.5 10.27, 98.36 21.21, 97.67 50.22 M97.29 47.82 C68.87 50.1, 37.69 50.61, 1.08 50.12 M97.8 49.51 C60.23 48.78, 22.07 50.32, 0.91 49.89 M-1.48 48.64 C-0.49 32.85, 1.08 14.7, -0.36 1.85 M0.34 49.23 C-0.61 37.81, -0.1 28.63, 0.39 0.19" stroke="#5f3dc4" stroke-width="1" fill="none"></path></g><g transform="translate(15 22.26568603515625) rotate(0 44 12.5)"><text x="44" y="18" font-family="Virgil, Segoe UI Emoji" font-size="20px" fill="#5f3dc4" text-anchor="middle" style="white-space: pre;" direction="ltr">Seed</text></g><g stroke-linecap="round"><g transform="translate(58.49200439453125 63.56219482421875) rotate(0 -0.4317575344815623 88.14918608468025)"><path d="M0 0 C-0.14 29.38, -0.72 146.92, -0.86 176.3 M0 0 C-0.14 29.38, -0.72 146.92, -0.86 176.3" stroke="#5f3dc4" stroke-width="1" fill="none"></path></g></g><g stroke-linecap="round"><g transform="translate(57.2694091796875 107.740478515625) rotate(0 61.30826298408209 0.20662204596519018)"><path d="M-0.59 0.81 C20.03 0.78, 102.72 -0.41, 123.2 -0.47 M1.31 0.19 C21.89 0.35, 102.68 1.13, 122.73 0.82" stroke="#5f3dc4" stroke-width="1" fill="none"></path></g><g transform="translate(57.2694091796875 107.740478515625) rotate(0 61.30826298408209 0.20662204596519018)"><path d="M95.91 12.63 C101.06 8.67, 109.85 4.01, 121.86 -0.88 M94.6 10.28 C101.93 9.21, 108.16 5.63, 122.96 1.37" stroke="#5f3dc4" stroke-width="1" fill="none"></path></g><g transform="translate(57.2694091796875 107.740478515625) rotate(0 61.30826298408209 0.20662204596519018)"><path d="M95.89 -7.9 C101 -6.56, 109.79 -5.91, 121.86 -0.88 M94.58 -10.24 C101.74 -6.41, 107.98 -5.09, 122.96 1.37" stroke="#5f3dc4" stroke-width="1" fill="none"></path></g></g><g stroke-linecap="round"><g transform="translate(62.51824951171875 170.26852416992188) rotate(0 61.55392815024595 0.12243761233986561)"><path d="M-0.98 0.88 C19.19 0.77, 100.98 -0.36, 121.69 -0.64 M0.71 0.3 C21.22 0.34, 103.7 0.59, 124.08 0.56" stroke="#5f3dc4" stroke-width="1" fill="none"></path></g><g transform="translate(62.51824951171875 170.26852416992188) rotate(0 61.55392815024595 0.12243761233986561)"><path d="M97.36 9.78 C104.91 8.98, 114.79 3.93, 125.76 0.34 M95.62 11.38 C105.42 8.06, 115.01 4, 123.79 1.55" stroke="#5f3dc4" stroke-width="1" fill="none"></path></g><g transform="translate(62.51824951171875 170.26852416992188) rotate(0 61.55392815024595 0.12243761233986561)"><path d="M97.38 -10.74 C104.93 -4.19, 114.81 -1.89, 125.76 0.34 M95.65 -9.14 C105.61 -5.58, 115.19 -2.76, 123.79 1.55" stroke="#5f3dc4" stroke-width="1" fill="none"></path></g></g><g transform="translate(214.55108642578125 93.30181884765625) rotate(0 59.5 12.5)"><text x="0" y="18" font-family="Virgil, Segoe UI Emoji" font-size="20px" fill="#364fc7" text-anchor="start" style="white-space: pre;" direction="ltr">Wallet UCO1</text></g><g transform="translate(213.0423583984375 156.66229248046875) rotate(0 68.5 12.5)"><text x="0" y="18" font-family="Virgil, Segoe UI Emoji" font-size="20px" fill="#2b8a3e" text-anchor="start" style="white-space: pre;" direction="ltr">Wallet Bitcoin</text></g><g stroke-linecap="round"><g transform="translate(58.33367919921875 237.57601928710938) rotate(0 66.40103315394373 0.5362147379845226)"><path d="M0.96 0.91 C23 1.01, 110.56 1.38, 132.8 1.37 M0.01 0.35 C21.8 0.04, 109.24 -0.03, 131.6 -0.3" stroke="#5f3dc4" stroke-width="1" fill="none"></path></g><g transform="translate(58.33367919921875 237.57601928710938) rotate(0 66.40103315394373 0.5362147379845226)"><path d="M104.99 9.34 C114.54 8.1, 123.42 1.54, 131.26 0.33 M102.65 10.7 C112.99 6.86, 119.8 2.76, 131.66 -0.41" stroke="#5f3dc4" stroke-width="1" fill="none"></path></g><g transform="translate(58.33367919921875 237.57601928710938) rotate(0 66.40103315394373 0.5362147379845226)"><path d="M104.87 -11.18 C114.6 -5.33, 123.51 -4.8, 131.26 0.33 M102.53 -9.82 C112.88 -7.45, 119.72 -5.34, 131.66 -0.41" stroke="#5f3dc4" stroke-width="1" fill="none"></path></g></g><g transform="translate(218.55047607421875 223.56280517578125) rotate(0 71.5 12.5)"><text x="0" y="18" font-family="Virgil, Segoe UI Emoji" font-size="20px" fill="#d9480f" text-anchor="start" style="white-space: pre;" direction="ltr">Wallet Amazon</text></g></svg>