<svg version="1.1" viewBox="0.0 0.0 811.0 502.0" fill="none" stroke="none" stroke-linecap="square" stroke-miterlimit="10" width="811" height="502" xmlns:xlink="http://www.w3.org/1999/xlink" xmlns="http://www.w3.org/2000/svg"><path fill="#ffffff" d="M0 0L811.0 0L811.0 502.0L0 502.0L0 0Z" fill-rule="nonzero"/><path stroke="#333333" stroke-width="1.0" stroke-linecap="butt" d="M94.5 424.5L785.5 424.5" fill-rule="nonzero"/><path stroke="#cccccc" stroke-width="1.0" stroke-linecap="butt" d="M94.5 307.5L785.5 307.5" fill-rule="nonzero"/><path stroke="#cccccc" stroke-width="1.0" stroke-linecap="butt" d="M94.5 190.5L785.5 190.5" fill-rule="nonzero"/><path stroke="#cccccc" stroke-width="1.0" stroke-linecap="butt" d="M94.5 72.5L785.5 72.5" fill-rule="nonzero"/><clipPath id="id_0"><path d="M94.1 72.833336L785.9 72.833336L785.9 424.9L94.1 424.9L94.1 72.833336Z" clip-rule="nonzero"/></clipPath><path stroke="#4285f4" stroke-width="2.0" stroke-linecap="butt" clip-path="url(#id_0)" d="M137.3375 421.84634L223.8125 414.93082L310.2875 401.4289L396.7625 354.54712L483.2375 266.53043L569.7125 171.8467L656.1875 72.833336" fill-rule="nonzero"/><path fill="#000000" fill-opacity="0.0" clip-path="url(#id_0)" d="M140.3375 421.84634C140.3375 423.5032 138.99435 424.84634 137.3375 424.84634C135.68065 424.84634 134.3375 423.5032 134.3375 421.84634C134.3375 420.18948 135.68065 418.84634 137.3375 418.84634C138.99435 418.84634 140.3375 420.18948 140.3375 421.84634Z" fill-rule="nonzero"/><path fill="#000000" fill-opacity="0.0" clip-path="url(#id_0)" d="M226.8125 414.93082C226.8125 416.58768 225.46936 417.93082 223.8125 417.93082C222.15564 417.93082 220.8125 416.58768 220.8125 414.93082C220.8125 413.27396 222.15564 411.93082 223.8125 411.93082C225.46936 411.93082 226.8125 413.27396 226.8125 414.93082Z" fill-rule="nonzero"/><path fill="#000000" fill-opacity="0.0" clip-path="url(#id_0)" d="M313.2875 401.4289C313.2875 403.08575 311.94437 404.4289 310.2875 404.4289C308.63065 404.4289 307.2875 403.08575 307.2875 401.4289C307.2875 399.77203 308.63065 398.4289 310.2875 398.4289C311.94437 398.4289 313.2875 399.77203 313.2875 401.4289Z" fill-rule="nonzero"/><path fill="#000000" fill-opacity="0.0" clip-path="url(#id_0)" d="M399.7625 354.54712C399.7625 356.20395 398.41934 357.54712 396.7625 357.54712C395.10565 357.54712 393.7625 356.20395 393.7625 354.54712C393.7625 352.89026 395.10565 351.54712 396.7625 351.54712C398.41934 351.54712 399.7625 352.89026 399.7625 354.54712Z" fill-rule="nonzero"/><path fill="#000000" fill-opacity="0.0" clip-path="url(#id_0)" d="M486.2375 266.53043C486.2375 268.1873 484.89435 269.53043 483.2375 269.53043C481.58066 269.53043 480.2375 268.1873 480.2375 266.53043C480.2375 264.8736 481.58066 263.53043 483.2375 263.53043C484.89435 263.53043 486.2375 264.8736 486.2375 266.53043Z" fill-rule="nonzero"/><path fill="#000000" fill-opacity="0.0" clip-path="url(#id_0)" d="M572.7125 171.8467C572.7125 173.50354 571.3694 174.8467 569.7125 174.8467C568.05566 174.8467 566.7125 173.50354 566.7125 171.8467C566.7125 170.18983 568.05566 168.8467 569.7125 168.8467C571.3694 168.8467 572.7125 170.18983 572.7125 171.8467Z" fill-rule="nonzero"/><path fill="#000000" fill-opacity="0.0" clip-path="url(#id_0)" d="M659.1875 72.833336C659.1875 74.49019 657.84436 75.833336 656.1875 75.833336C654.53064 75.833336 653.1875 74.49019 653.1875 72.833336C653.1875 71.176476 654.53064 69.833336 656.1875 69.833336C657.84436 69.833336 659.1875 71.176476 659.1875 72.833336Z" fill-rule="nonzero"/><path fill="#000000" d="M318.42188 473.9L318.42188 465.30624L319.57812 465.30624L324.09375 472.05624L324.09375 465.30624L325.1875 465.30624L325.1875 473.9L324.01562 473.9L319.5 467.15L319.5 473.9L318.42188 473.9ZM331.375 473.9L331.375 472.97812Q330.64062 474.04062 329.39062 474.04062Q328.84375 474.04062 328.35938 473.8375Q327.89062 473.61874 327.65625 473.30624Q327.42188 472.97812 327.32812 472.50937Q327.26562 472.2125 327.26562 471.525L327.26562 467.68124L328.32812 467.68124L328.32812 471.13437Q328.32812 471.94687 328.39062 472.24374Q328.48438 472.65 328.79688 472.9Q329.125 473.13437 329.60938 473.13437Q330.07812 473.13437 330.48438 472.9Q330.90625 472.65 331.07812 472.22812Q331.26562 471.80624 331.26562 471.00937L331.26562 467.68124L332.3125 467.68124L332.3125 473.9L331.375 473.9ZM334.29688 473.9L334.29688 467.68124L335.23438 467.68124L335.23438 468.55624Q335.53125 468.0875 336.01562 467.82187Q336.5 467.54062 337.125 467.54062Q337.8125 467.54062 338.25 467.82187Q338.70312 468.10312 338.875 468.61874Q339.625 467.54062 340.79688 467.54062Q341.73438 467.54062 342.21875 468.05624Q342.71875 468.55624 342.71875 469.63437L342.71875 473.9L341.67188 473.9L341.67188 469.97812Q341.67188 469.35312 341.5625 469.07187Q341.46875 468.79062 341.20312 468.61874Q340.9375 468.44687 340.5625 468.44687Q339.90625 468.44687 339.46875 468.88437Q339.04688 469.32187 339.04688 470.29062L339.04688 473.9L337.98438 473.9L337.98438 469.85312Q337.98438 469.15 337.71875 468.80624Q337.46875 468.44687 336.89062 468.44687Q336.4375 468.44687 336.0625 468.68124Q335.6875 468.91562 335.51562 469.36874Q335.34375 469.82187 335.34375 470.66562L335.34375 473.9L334.29688 473.9ZM346.26562 473.9L345.28125 473.9L345.28125 465.30624L346.34375 465.30624L346.34375 468.36874Q347.01562 467.54062 348.04688 467.54062Q348.625 467.54062 349.125 467.775Q349.64062 467.99374 349.96875 468.41562Q350.3125 468.8375 350.5 469.43124Q350.6875 470.025 350.6875 470.69687Q350.6875 472.29062 349.89062 473.16562Q349.09375 474.04062 348.0 474.04062Q346.89062 474.04062 346.26562 473.11874L346.26562 473.9ZM346.25 470.74374Q346.25 471.85312 346.5625 472.35312Q347.0625 473.16562 347.90625 473.16562Q348.59375 473.16562 349.09375 472.57187Q349.60938 471.97812 349.60938 470.775Q349.60938 469.55624 349.125 468.97812Q348.64062 468.4 347.95312 468.4Q347.26562 468.4 346.75 469.00937Q346.25 469.60312 346.25 470.74374ZM356.54688 471.9L357.64062 472.025Q357.39062 472.97812 356.6875 473.50937Q355.98438 474.04062 354.90625 474.04062Q353.54688 474.04062 352.73438 473.19687Q351.9375 472.35312 351.9375 470.8375Q351.9375 469.275 352.75 468.41562Q353.5625 467.54062 354.84375 467.54062Q356.09375 467.54062 356.875 468.38437Q357.67188 469.22812 357.67188 470.775Q357.67188 470.86874 357.67188 471.05624L353.03125 471.05624Q353.09375 472.0875 353.60938 472.63437Q354.125 473.16562 354.90625 473.16562Q355.48438 473.16562 355.89062 472.86874Q356.3125 472.55624 356.54688 471.9ZM353.09375 470.19687L356.5625 470.19687Q356.5 469.4 356.17188 469.00937Q355.65625 468.4 354.85938 468.4Q354.125 468.4 353.625 468.88437Q353.14062 469.36874 353.09375 470.19687ZM359.28125 473.9L359.28125 467.68124L360.23438 467.68124L360.23438 468.61874Q360.59375 467.9625 360.89062 467.75937Q361.20312 467.54062 361.57812 467.54062Q362.10938 467.54062 362.65625 467.86874L362.29688 468.85312Q361.90625 468.61874 361.53125 468.61874Q361.17188 468.61874 360.89062 468.8375Q360.625 469.04062 360.51562 469.41562Q360.32812 469.97812 360.32812 470.63437L360.32812 473.9L359.28125 473.9ZM365.90625 470.79062Q365.90625 469.05624 366.85938 468.22812Q367.65625 467.54062 368.8125 467.54062Q370.09375 467.54062 370.90625 468.38437Q371.73438 469.2125 371.73438 470.69687Q371.73438 471.9 371.375 472.5875Q371.01562 473.275 370.3125 473.66562Q369.625 474.04062 368.8125 474.04062Q367.51562 474.04062 366.70312 473.2125Q365.90625 472.36874 365.90625 470.79062ZM366.98438 470.79062Q366.98438 471.97812 367.5 472.57187Q368.03125 473.16562 368.8125 473.16562Q369.60938 473.16562 370.125 472.57187Q370.64062 471.97812 370.64062 470.75937Q370.64062 469.60312 370.10938 469.00937Q369.59375 468.41562 368.8125 468.41562Q368.03125 468.41562 367.5 469.00937Q366.98438 469.5875 366.98438 470.79062ZM373.54688 473.9L373.54688 468.49374L372.60938 468.49374L372.60938 467.68124L373.54688 467.68124L373.54688 467.00937Q373.54688 466.38437 373.65625 466.0875Q373.8125 465.66562 374.1875 465.41562Q374.57812 465.16562 375.26562 465.16562Q375.71875 465.16562 376.25 465.275L376.09375 466.18124Q375.76562 466.13437 375.46875 466.13437Q374.98438 466.13437 374.78125 466.3375Q374.59375 466.54062 374.59375 467.10312L374.59375 467.68124L375.8125 467.68124L375.8125 468.49374L374.59375 468.49374L374.59375 473.9L373.54688 473.9ZM383.375 473.9L383.375 472.97812Q382.64062 474.04062 381.39062 474.04062Q380.84375 474.04062 380.35938 473.8375Q379.89062 473.61874 379.65625 473.30624Q379.42188 472.97812 379.32812 472.50937Q379.26562 472.2125 379.26562 471.525L379.26562 467.68124L380.32812 467.68124L380.32812 471.13437Q380.32812 471.94687 380.39062 472.24374Q380.48438 472.65 380.79688 472.9Q381.125 473.13437 381.60938 473.13437Q382.07812 473.13437 382.48438 472.9Q382.90625 472.65 383.07812 472.22812Q383.26562 471.80624 383.26562 471.00937L383.26562 467.68124L384.3125 467.68124L384.3125 473.9L383.375 473.9ZM386.29688 473.9L386.29688 467.68124L387.23438 467.68124L387.23438 468.55624Q387.92188 467.54062 389.21875 467.54062Q389.78125 467.54062 390.25 467.74374Q390.73438 467.94687 390.96875 468.275Q391.20312 468.60312 391.29688 469.04062Q391.34375 469.3375 391.34375 470.07187L391.34375 473.9L390.29688 473.9L390.29688 470.11874Q390.29688 469.4625 390.17188 469.15Q390.04688 468.8375 389.73438 468.65Q389.42188 468.44687 389.0 468.44687Q388.32812 468.44687 387.82812 468.88437Q387.34375 469.30624 387.34375 470.49374L387.34375 473.9L386.29688 473.9ZM392.875 472.04062L393.90625 471.88437Q394.0 472.50937 394.39062 472.8375Q394.79688 473.16562 395.53125 473.16562Q396.25 473.16562 396.59375 472.88437Q396.95312 472.5875 396.95312 472.18124Q396.95312 471.82187 396.64062 471.61874Q396.42188 471.47812 395.5625 471.25937Q394.40625 470.9625 393.95312 470.75937Q393.51562 470.54062 393.28125 470.16562Q393.04688 469.79062 393.04688 469.32187Q393.04688 468.91562 393.23438 468.55624Q393.42188 468.19687 393.75 467.9625Q394.0 467.79062 394.42188 467.66562Q394.84375 467.54062 395.34375 467.54062Q396.0625 467.54062 396.60938 467.75937Q397.17188 467.9625 397.4375 468.32187Q397.70312 468.68124 397.79688 469.275L396.76562 469.41562Q396.70312 468.94687 396.35938 468.68124Q396.03125 468.4 395.40625 468.4Q394.6875 468.4 394.375 468.65Q394.0625 468.88437 394.0625 469.2125Q394.0625 469.41562 394.1875 469.57187Q394.32812 469.74374 394.59375 469.85312Q394.75 469.91562 395.53125 470.11874Q396.65625 470.43124 397.09375 470.61874Q397.53125 470.80624 397.78125 471.16562Q398.03125 471.525 398.03125 472.07187Q398.03125 472.60312 397.71875 473.07187Q397.42188 473.525 396.84375 473.79062Q396.26562 474.04062 395.53125 474.04062Q394.3125 474.04062 393.67188 473.54062Q393.04688 473.025 392.875 472.04062ZM400.29688 476.29062L400.29688 467.68124L401.25 467.68124L401.25 468.47812Q401.59375 468.00937 402.01562 467.775Q402.45312 467.54062 403.0625 467.54062Q403.85938 467.54062 404.46875 467.94687Q405.07812 468.35312 405.375 469.10312Q405.6875 469.85312 405.6875 470.74374Q405.6875 471.69687 405.34375 472.4625Q405.01562 473.22812 404.35938 473.63437Q403.70312 474.04062 402.98438 474.04062Q402.45312 474.04062 402.03125 473.82187Q401.60938 473.5875 401.34375 473.25937L401.34375 476.29062L400.29688 476.29062ZM401.25 470.82187Q401.25 472.025 401.73438 472.60312Q402.21875 473.16562 402.90625 473.16562Q403.60938 473.16562 404.10938 472.57187Q404.60938 471.97812 404.60938 470.72812Q404.60938 469.54062 404.125 468.9625Q403.64062 468.36874 402.95312 468.36874Q402.28125 468.36874 401.76562 468.99374Q401.25 469.61874 401.25 470.82187ZM411.54688 471.9L412.64062 472.025Q412.39062 472.97812 411.6875 473.50937Q410.98438 474.04062 409.90625 474.04062Q408.54688 474.04062 407.73438 473.19687Q406.9375 472.35312 406.9375 470.8375Q406.9375 469.275 407.75 468.41562Q408.5625 467.54062 409.84375 467.54062Q411.09375 467.54062 411.875 468.38437Q412.67188 469.22812 412.67188 470.775Q412.67188 470.86874 412.67188 471.05624L408.03125 471.05624Q408.09375 472.0875 408.60938 472.63437Q409.125 473.16562 409.90625 473.16562Q410.48438 473.16562 410.89062 472.86874Q411.3125 472.55624 411.54688 471.9ZM408.09375 470.19687L411.5625 470.19687Q411.5 469.4 411.17188 469.00937Q410.65625 468.4 409.85938 468.4Q409.125 468.4 408.625 468.88437Q408.14062 469.36874 408.09375 470.19687ZM414.29688 473.9L414.29688 467.68124L415.23438 467.68124L415.23438 468.55624Q415.92188 467.54062 417.21875 467.54062Q417.78125 467.54062 418.25 467.74374Q418.73438 467.94687 418.96875 468.275Q419.20312 468.60312 419.29688 469.04062Q419.34375 469.3375 419.34375 470.07187L419.34375 473.9L418.29688 473.9L418.29688 470.11874Q418.29688 469.4625 418.17188 469.15Q418.04688 468.8375 417.73438 468.65Q417.42188 468.44687 417.0 468.44687Q416.32812 468.44687 415.82812 468.88437Q415.34375 469.30624 415.34375 470.49374L415.34375 473.9L414.29688 473.9ZM423.59375 472.9625L423.75 473.88437Q423.29688 473.97812 422.95312 473.97812Q422.375 473.97812 422.0625 473.80624Q421.75 473.61874 421.60938 473.32187Q421.48438 473.025 421.48438 472.07187L421.48438 468.49374L420.71875 468.49374L420.71875 467.68124L421.48438 467.68124L421.48438 466.13437L422.53125 465.50937L422.53125 467.68124L423.59375 467.68124L423.59375 468.49374L422.53125 468.49374L422.53125 472.13437Q422.53125 472.5875 422.57812 472.7125Q422.64062 472.8375 422.76562 472.91562Q422.89062 472.99374 423.125 472.99374Q423.3125 472.99374 423.59375 472.9625ZM426.90625 470.79062Q426.90625 469.05624 427.85938 468.22812Q428.65625 467.54062 429.8125 467.54062Q431.09375 467.54062 431.90625 468.38437Q432.73438 469.2125 432.73438 470.69687Q432.73438 471.9 432.375 472.5875Q432.01562 473.275 431.3125 473.66562Q430.625 474.04062 429.8125 474.04062Q428.51562 474.04062 427.70312 473.2125Q426.90625 472.36874 426.90625 470.79062ZM427.98438 470.79062Q427.98438 471.97812 428.5 472.57187Q429.03125 473.16562 429.8125 473.16562Q430.60938 473.16562 431.125 472.57187Q431.64062 471.97812 431.64062 470.75937Q431.64062 469.60312 431.10938 469.00937Q430.59375 468.41562 429.8125 468.41562Q429.03125 468.41562 428.5 469.00937Q427.98438 469.5875 427.98438 470.79062ZM438.375 473.9L438.375 472.97812Q437.64062 474.04062 436.39062 474.04062Q435.84375 474.04062 435.35938 473.8375Q434.89062 473.61874 434.65625 473.30624Q434.42188 472.97812 434.32812 472.50937Q434.26562 472.2125 434.26562 471.525L434.26562 467.68124L435.32812 467.68124L435.32812 471.13437Q435.32812 471.94687 435.39062 472.24374Q435.48438 472.65 435.79688 472.9Q436.125 473.13437 436.60938 473.13437Q437.07812 473.13437 437.48438 472.9Q437.90625 472.65 438.07812 472.22812Q438.26562 471.80624 438.26562 471.00937L438.26562 467.68124L439.3125 467.68124L439.3125 473.9L438.375 473.9ZM443.59375 472.9625L443.75 473.88437Q443.29688 473.97812 442.95312 473.97812Q442.375 473.97812 442.0625 473.80624Q441.75 473.61874 441.60938 473.32187Q441.48438 473.025 441.48438 472.07187L441.48438 468.49374L440.71875 468.49374L440.71875 467.68124L441.48438 467.68124L441.48438 466.13437L442.53125 465.50937L442.53125 467.68124L443.59375 467.68124L443.59375 468.49374L442.53125 468.49374L442.53125 472.13437Q442.53125 472.5875 442.57812 472.7125Q442.64062 472.8375 442.76562 472.91562Q442.89062 472.99374 443.125 472.99374Q443.3125 472.99374 443.59375 472.9625ZM444.29688 476.29062L444.29688 467.68124L445.25 467.68124L445.25 468.47812Q445.59375 468.00937 446.01562 467.775Q446.45312 467.54062 447.0625 467.54062Q447.85938 467.54062 448.46875 467.94687Q449.07812 468.35312 449.375 469.10312Q449.6875 469.85312 449.6875 470.74374Q449.6875 471.69687 449.34375 472.4625Q449.01562 473.22812 448.35938 473.63437Q447.70312 474.04062 446.98438 474.04062Q446.45312 474.04062 446.03125 473.82187Q445.60938 473.5875 445.34375 473.25937L445.34375 476.29062L444.29688 476.29062ZM445.25 470.82187Q445.25 472.025 445.73438 472.60312Q446.21875 473.16562 446.90625 473.16562Q447.60938 473.16562 448.10938 472.57187Q448.60938 471.97812 448.60938 470.72812Q448.60938 469.54062 448.125 468.9625Q447.64062 468.36874 446.95312 468.36874Q446.28125 468.36874 445.76562 468.99374Q445.25 469.61874 445.25 470.82187ZM455.375 473.9L455.375 472.97812Q454.64062 474.04062 453.39062 474.04062Q452.84375 474.04062 452.35938 473.8375Q451.89062 473.61874 451.65625 473.30624Q451.42188 472.97812 451.32812 472.50937Q451.26562 472.2125 451.26562 471.525L451.26562 467.68124L452.32812 467.68124L452.32812 471.13437Q452.32812 471.94687 452.39062 472.24374Q452.48438 472.65 452.79688 472.9Q453.125 473.13437 453.60938 473.13437Q454.07812 473.13437 454.48438 472.9Q454.90625 472.65 455.07812 472.22812Q455.26562 471.80624 455.26562 471.00937L455.26562 467.68124L456.3125 467.68124L456.3125 473.9L455.375 473.9ZM460.59375 472.9625L460.75 473.88437Q460.29688 473.97812 459.95312 473.97812Q459.375 473.97812 459.0625 473.80624Q458.75 473.61874 458.60938 473.32187Q458.48438 473.025 458.48438 472.07187L458.48438 468.49374L457.71875 468.49374L457.71875 467.68124L458.48438 467.68124L458.48438 466.13437L459.53125 465.50937L459.53125 467.68124L460.59375 467.68124L460.59375 468.49374L459.53125 468.49374L459.53125 472.13437Q459.53125 472.5875 459.57812 472.7125Q459.64062 472.8375 459.76562 472.91562Q459.89062 472.99374 460.125 472.99374Q460.3125 472.99374 460.59375 472.9625ZM460.875 472.04062L461.90625 471.88437Q462.0 472.50937 462.39062 472.8375Q462.79688 473.16562 463.53125 473.16562Q464.25 473.16562 464.59375 472.88437Q464.95312 472.5875 464.95312 472.18124Q464.95312 471.82187 464.64062 471.61874Q464.42188 471.47812 463.5625 471.25937Q462.40625 470.9625 461.95312 470.75937Q461.51562 470.54062 461.28125 470.16562Q461.04688 469.79062 461.04688 469.32187Q461.04688 468.91562 461.23438 468.55624Q461.42188 468.19687 461.75 467.9625Q462.0 467.79062 462.42188 467.66562Q462.84375 467.54062 463.34375 467.54062Q464.0625 467.54062 464.60938 467.75937Q465.17188 467.9625 465.4375 468.32187Q465.70312 468.68124 465.79688 469.275L464.76562 469.41562Q464.70312 468.94687 464.35938 468.68124Q464.03125 468.4 463.40625 468.4Q462.6875 468.4 462.375 468.65Q462.0625 468.88437 462.0625 469.2125Q462.0625 469.41562 462.1875 469.57187Q462.32812 469.74374 462.59375 469.85312Q462.75 469.91562 463.53125 470.11874Q464.65625 470.43124 465.09375 470.61874Q465.53125 470.80624 465.78125 471.16562Q466.03125 471.525 466.03125 472.07187Q466.03125 472.60312 465.71875 473.07187Q465.42188 473.525 464.84375 473.79062Q464.26562 474.04062 463.53125 474.04062Q462.3125 474.04062 461.67188 473.54062Q461.04688 473.025 460.875 472.04062ZM473.3125 476.43124Q472.4375 475.32187 471.82812 473.85312Q471.23438 472.36874 471.23438 470.79062Q471.23438 469.4 471.67188 468.11874Q472.20312 466.63437 473.3125 465.16562L474.0625 465.16562Q473.35938 466.38437 473.125 466.9Q472.76562 467.7125 472.5625 468.5875Q472.3125 469.68124 472.3125 470.79062Q472.3125 473.61874 474.0625 476.43124L473.3125 476.43124ZM480.84375 468.85312L475.17188 468.85312L475.17188 467.86874L480.84375 467.86874L480.84375 468.85312ZM480.84375 471.4625L475.17188 471.4625L475.17188 470.47812L480.84375 470.47812L480.84375 471.4625ZM486.35938 471.61874L487.39062 471.75937Q487.21875 472.82187 486.51562 473.43124Q485.8125 474.04062 484.79688 474.04062Q483.51562 474.04062 482.73438 473.2125Q481.96875 472.36874 481.96875 470.80624Q481.96875 469.80624 482.29688 469.05624Q482.64062 468.29062 483.3125 467.91562Q484.0 467.54062 484.8125 467.54062Q485.8125 467.54062 486.45312 468.05624Q487.10938 468.55624 487.29688 469.50937L486.26562 469.66562Q486.125 469.04062 485.75 468.72812Q485.375 468.4 484.84375 468.4Q484.04688 468.4 483.54688 468.97812Q483.04688 469.54062 483.04688 470.775Q483.04688 472.04062 483.53125 472.60312Q484.01562 473.16562 484.78125 473.16562Q485.40625 473.16562 485.8125 472.79062Q486.23438 472.41562 486.35938 471.61874ZM487.90625 470.79062Q487.90625 469.05624 488.85938 468.22812Q489.65625 467.54062 490.8125 467.54062Q492.09375 467.54062 492.90625 468.38437Q493.73438 469.2125 493.73438 470.69687Q493.73438 471.9 493.375 472.5875Q493.01562 473.275 492.3125 473.66562Q491.625 474.04062 490.8125 474.04062Q489.51562 474.04062 488.70312 473.2125Q487.90625 472.36874 487.90625 470.79062ZM488.98438 470.79062Q488.98438 471.97812 489.5 472.57187Q490.03125 473.16562 490.8125 473.16562Q491.60938 473.16562 492.125 472.57187Q492.64062 471.97812 492.64062 470.75937Q492.64062 469.60312 492.10938 469.00937Q491.59375 468.41562 490.8125 468.41562Q490.03125 468.41562 489.5 469.00937Q488.98438 469.5875 488.98438 470.79062ZM495.26562 473.9L495.26562 465.30624L496.32812 465.30624L496.32812 473.9L495.26562 473.9ZM498.26562 473.9L498.26562 465.30624L499.32812 465.30624L499.32812 473.9L498.26562 473.9ZM505.54688 471.9L506.64062 472.025Q506.39062 472.97812 505.6875 473.50937Q504.98438 474.04062 503.90625 474.04062Q502.54688 474.04062 501.73438 473.19687Q500.9375 472.35312 500.9375 470.8375Q500.9375 469.275 501.75 468.41562Q502.5625 467.54062 503.84375 467.54062Q505.09375 467.54062 505.875 468.38437Q506.67188 469.22812 506.67188 470.775Q506.67188 470.86874 506.67188 471.05624L502.03125 471.05624Q502.09375 472.0875 502.60938 472.63437Q503.125 473.16562 503.90625 473.16562Q504.48438 473.16562 504.89062 472.86874Q505.3125 472.55624 505.54688 471.9ZM502.09375 470.19687L505.5625 470.19687Q505.5 469.4 505.17188 469.00937Q504.65625 468.4 503.85938 468.4Q503.125 468.4 502.625 468.88437Q502.14062 469.36874 502.09375 470.19687ZM512.3594 471.61874L513.3906 471.75937Q513.21875 472.82187 512.5156 473.43124Q511.8125 474.04062 510.79688 474.04062Q509.51562 474.04062 508.73438 473.2125Q507.96875 472.36874 507.96875 470.80624Q507.96875 469.80624 508.29688 469.05624Q508.64062 468.29062 509.3125 467.91562Q510.0 467.54062 510.8125 467.54062Q511.8125 467.54062 512.4531 468.05624Q513.1094 468.55624 513.2969 469.50937L512.2656 469.66562Q512.125 469.04062 511.75 468.72812Q511.375 468.4 510.84375 468.4Q510.04688 468.4 509.54688 468.97812Q509.04688 469.54062 509.04688 470.775Q509.04688 472.04062 509.53125 472.60312Q510.01562 473.16562 510.78125 473.16562Q511.40625 473.16562 511.8125 472.79062Q512.2344 472.41562 512.3594 471.61874ZM516.59375 472.9625L516.75 473.88437Q516.2969 473.97812 515.9531 473.97812Q515.375 473.97812 515.0625 473.80624Q514.75 473.61874 514.6094 473.32187Q514.4844 473.025 514.4844 472.07187L514.4844 468.49374L513.71875 468.49374L513.71875 467.68124L514.4844 467.68124L514.4844 466.13437L515.53125 465.50937L515.53125 467.68124L516.59375 467.68124L516.59375 468.49374L515.53125 468.49374L515.53125 472.13437Q515.53125 472.5875 515.5781 472.7125Q515.6406 472.8375 515.7656 472.91562Q515.8906 472.99374 516.125 472.99374Q516.3125 472.99374 516.59375 472.9625ZM517.2969 466.525L517.2969 465.30624L518.3594 465.30624L518.3594 466.525L517.2969 466.525ZM517.2969 473.9L517.2969 467.68124L518.3594 467.68124L518.3594 473.9L517.2969 473.9ZM519.90625 470.79062Q519.90625 469.05624 520.8594 468.22812Q521.65625 467.54062 522.8125 467.54062Q524.09375 467.54062 524.90625 468.38437Q525.7344 469.2125 525.7344 470.69687Q525.7344 471.9 525.375 472.5875Q525.0156 473.275 524.3125 473.66562Q523.625 474.04062 522.8125 474.04062Q521.5156 474.04062 520.7031 473.2125Q519.90625 472.36874 519.90625 470.79062ZM520.9844 470.79062Q520.9844 471.97812 521.5 472.57187Q522.03125 473.16562 522.8125 473.16562Q523.6094 473.16562 524.125 472.57187Q524.6406 471.97812 524.6406 470.75937Q524.6406 469.60312 524.1094 469.00937Q523.59375 468.41562 522.8125 468.41562Q522.03125 468.41562 521.5 469.00937Q520.9844 469.5875 520.9844 470.79062ZM527.2969 473.9L527.2969 467.68124L528.2344 467.68124L528.2344 468.55624Q528.9219 467.54062 530.21875 467.54062Q530.78125 467.54062 531.25 467.74374Q531.7344 467.94687 531.96875 468.275Q532.2031 468.60312 532.2969 469.04062Q532.34375 469.3375 532.34375 470.07187L532.34375 473.9L531.2969 473.9L531.2969 470.11874Q531.2969 469.4625 531.1719 469.15Q531.0469 468.8375 530.7344 468.65Q530.4219 468.44687 530.0 468.44687Q529.3281 468.44687 528.8281 468.88437Q528.34375 469.30624 528.34375 470.49374L528.34375 473.9L527.2969 473.9ZM536.875 472.04062L537.90625 471.88437Q538.0 472.50937 538.3906 472.8375Q538.7969 473.16562 539.53125 473.16562Q540.25 473.16562 540.59375 472.88437Q540.9531 472.5875 540.9531 472.18124Q540.9531 471.82187 540.6406 471.61874Q540.4219 471.47812 539.5625 471.25937Q538.40625 470.9625 537.9531 470.75937Q537.5156 470.54062 537.28125 470.16562Q537.0469 469.79062 537.0469 469.32187Q537.0469 468.91562 537.2344 468.55624Q537.4219 468.19687 537.75 467.9625Q538.0 467.79062 538.4219 467.66562Q538.84375 467.54062 539.34375 467.54062Q540.0625 467.54062 540.6094 467.75937Q541.1719 467.9625 541.4375 468.32187Q541.7031 468.68124 541.7969 469.275L540.7656 469.41562Q540.7031 468.94687 540.3594 468.68124Q540.03125 468.4 539.40625 468.4Q538.6875 468.4 538.375 468.65Q538.0625 468.88437 538.0625 469.2125Q538.0625 469.41562 538.1875 469.57187Q538.3281 469.74374 538.59375 469.85312Q538.75 469.91562 539.53125 470.11874Q540.65625 470.43124 541.09375 470.61874Q541.53125 470.80624 541.78125 471.16562Q542.03125 471.525 542.03125 472.07187Q542.03125 472.60312 541.71875 473.07187Q541.4219 473.525 540.84375 473.79062Q540.2656 474.04062 539.53125 474.04062Q538.3125 474.04062 537.6719 473.54062Q537.0469 473.025 536.875 472.04062ZM544.2969 466.525L544.2969 465.30624L545.3594 465.30624L545.3594 466.525L544.2969 466.525ZM544.2969 473.9L544.2969 467.68124L545.3594 467.68124L545.3594 473.9L544.2969 473.9ZM546.7344 473.9L546.7344 473.04062L550.7031 468.49374Q550.0156 468.525 549.5 468.525L546.96875 468.525L546.96875 467.68124L552.0625 467.68124L552.0625 468.36874L548.6875 472.32187L548.03125 473.04062Q548.75 472.99374 549.3594 472.99374L552.25 472.99374L552.25 473.9L546.7344 473.9ZM556.5469 471.9L557.6406 472.025Q557.3906 472.97812 556.6875 473.50937Q555.9844 474.04062 554.90625 474.04062Q553.5469 474.04062 552.7344 473.19687Q551.9375 472.35312 551.9375 470.8375Q551.9375 469.275 552.75 468.41562Q553.5625 467.54062 554.84375 467.54062Q556.09375 467.54062 556.875 468.38437Q557.6719 469.22812 557.6719 470.775Q557.6719 470.86874 557.6719 471.05624L553.03125 471.05624Q553.09375 472.0875 553.6094 472.63437Q554.125 473.16562 554.90625 473.16562Q555.4844 473.16562 555.8906 472.86874Q556.3125 472.55624 556.5469 471.9ZM553.09375 470.19687L556.5625 470.19687Q556.5 469.4 556.1719 469.00937Q555.65625 468.4 554.8594 468.4Q554.125 468.4 553.625 468.88437Q553.1406 469.36874 553.09375 470.19687ZM559.9844 476.43124L559.2344 476.43124Q560.9844 473.61874 560.9844 470.79062Q560.9844 469.69687 560.7344 468.60312Q560.53125 467.72812 560.1719 466.91562Q559.9375 466.4 559.2344 465.16562L559.9844 465.16562Q561.0781 466.63437 561.6094 468.11874Q562.0625 469.4 562.0625 470.79062Q562.0625 472.36874 561.4531 473.85312Q560.84375 475.32187 559.9844 476.43124Z" fill-rule="nonzero"/><path fill="#000000" d="M36.099995 292.3823L27.506245 289.08542L27.506245 287.86667L36.099995 284.35104L36.099995 285.6323L33.49062 286.64792L33.49062 290.22604L36.099995 291.17917L36.099995 292.3823ZM32.568745 289.89792L32.568745 286.99167L30.193745 287.8823Q29.11562 288.30417 28.412495 288.49167Q29.24062 288.66354 30.05312 288.96042L32.568745 289.89792ZM36.099995 280.53854L35.318745 280.53854Q36.24062 281.1323 36.24062 282.27292Q36.24062 283.02292 35.83437 283.64792Q35.412495 284.27292 34.67812 284.61667Q33.943745 284.96042 32.99062 284.96042Q32.068745 284.96042 31.30312 284.64792Q30.537495 284.33542 30.14687 283.71042Q29.74062 283.08542 29.74062 282.3198Q29.74062 281.7573 29.974995 281.3198Q30.20937 280.8823 30.58437 280.60104L27.506245 280.60104L27.506245 279.55417L36.099995 279.55417L36.099995 280.53854ZM32.99062 283.86667Q34.193745 283.86667 34.787495 283.36667Q35.36562 282.86667 35.36562 282.17917Q35.36562 281.49167 34.80312 281.0073Q34.24062 280.52292 33.08437 280.52292Q31.80312 280.52292 31.20937 281.02292Q30.61562 281.5073 30.61562 282.22604Q30.61562 282.92917 31.193745 283.39792Q31.756245 283.86667 32.99062 283.86667ZM36.099995 273.53854L35.318745 273.53854Q36.24062 274.1323 36.24062 275.27292Q36.24062 276.02292 35.83437 276.64792Q35.412495 277.27292 34.67812 277.61667Q33.943745 277.96042 32.99062 277.96042Q32.068745 277.96042 31.30312 277.64792Q30.537495 277.33542 30.14687 276.71042Q29.74062 276.08542 29.74062 275.3198Q29.74062 274.7573 29.974995 274.3198Q30.20937 273.8823 30.58437 273.60104L27.506245 273.60104L27.506245 272.55417L36.099995 272.55417L36.099995 273.53854ZM32.99062 276.86667Q34.193745 276.86667 34.787495 276.36667Q35.36562 275.86667 35.36562 275.17917Q35.36562 274.49167 34.80312 274.0073Q34.24062 273.52292 33.08437 273.52292Q31.80312 273.52292 31.20937 274.02292Q30.61562 274.5073 30.61562 275.22604Q30.61562 275.92917 31.193745 276.39792Q31.756245 276.86667 32.99062 276.86667ZM28.724995 270.5698L27.506245 270.5698L27.506245 269.5073L28.724995 269.5073L28.724995 270.5698ZM36.099995 270.5698L29.881245 270.5698L29.881245 269.5073L36.099995 269.5073L36.099995 270.5698ZM35.162495 265.27292L36.08437 265.11667Q36.17812 265.5698 36.17812 265.91354Q36.17812 266.49167 36.006245 266.80417Q35.818745 267.11667 35.52187 267.2573Q35.224995 267.3823 34.27187 267.3823L30.693745 267.3823L30.693745 268.14792L29.881245 268.14792L29.881245 267.3823L28.33437 267.3823L27.70937 266.33542L29.881245 266.33542L29.881245 265.27292L30.693745 265.27292L30.693745 266.33542L34.33437 266.33542Q34.787495 266.33542 34.912495 266.28854Q35.037495 266.22604 35.11562 266.10104Q35.193745 265.97604 35.193745 265.74167Q35.193745 265.55417 35.162495 265.27292ZM28.724995 264.5698L27.506245 264.5698L27.506245 263.5073L28.724995 263.5073L28.724995 264.5698ZM36.099995 264.5698L29.881245 264.5698L29.881245 263.5073L36.099995 263.5073L36.099995 264.5698ZM32.99062 261.96042Q31.256245 261.96042 30.42812 261.0073Q29.74062 260.21042 29.74062 259.05417Q29.74062 257.77292 30.58437 256.96042Q31.412495 256.1323 32.89687 256.1323Q34.099995 256.1323 34.787495 256.49167Q35.474995 256.85104 35.86562 257.55417Q36.24062 258.24167 36.24062 259.05417Q36.24062 260.35104 35.412495 261.16354Q34.568745 261.96042 32.99062 261.96042ZM32.99062 260.8823Q34.17812 260.8823 34.77187 260.36667Q35.36562 259.83542 35.36562 259.05417Q35.36562 258.2573 34.77187 257.74167Q34.17812 257.22604 32.95937 257.22604Q31.80312 257.22604 31.20937 257.7573Q30.61562 258.27292 30.61562 259.05417Q30.61562 259.83542 31.20937 260.36667Q31.787495 260.8823 32.99062 260.8823ZM36.099995 254.5698L29.881245 254.5698L29.881245 253.6323L30.756245 253.6323Q29.74062 252.9448 29.74062 251.64792Q29.74062 251.08542 29.943745 250.61667Q30.14687 250.1323 30.474995 249.89792Q30.80312 249.66354 31.24062 249.5698Q31.537495 249.52292 32.27187 249.52292L36.099995 249.52292L36.099995 250.5698L32.318745 250.5698Q31.662495 250.5698 31.349995 250.6948Q31.037495 250.8198 30.849995 251.1323Q30.64687 251.4448 30.64687 251.86667Q30.64687 252.53854 31.08437 253.03854Q31.506245 253.52292 32.693745 253.52292L36.099995 253.52292L36.099995 254.5698ZM35.33437 243.5073Q35.83437 244.10104 36.037495 244.64792Q36.24062 245.17917 36.24062 245.80417Q36.24062 246.83542 35.74062 247.3823Q35.24062 247.92917 34.45937 247.92917Q34.006245 247.92917 33.631245 247.72604Q33.24062 247.52292 33.02187 247.17917Q32.787495 246.83542 32.67812 246.41354Q32.58437 246.11667 32.506245 245.47604Q32.36562 244.21042 32.14687 243.60104Q31.92812 243.60104 31.881245 243.60104Q31.224995 243.60104 30.95937 243.89792Q30.61562 244.30417 30.61562 245.10104Q30.61562 245.83542 30.881245 246.1948Q31.131245 246.55417 31.787495 246.72604L31.64687 247.7573Q30.99062 247.61667 30.58437 247.28854Q30.17812 246.96042 29.95937 246.35104Q29.74062 245.74167 29.74062 244.9448Q29.74062 244.14792 29.92812 243.64792Q30.11562 243.14792 30.39687 242.91354Q30.67812 242.67917 31.11562 242.58542Q31.381245 242.53854 32.08437 242.53854L33.49062 242.53854Q34.95937 242.53854 35.349995 242.47604Q35.74062 242.39792 36.099995 242.1948L36.099995 243.30417Q35.77187 243.46042 35.33437 243.5073ZM32.974995 243.60104Q33.20937 244.17917 33.381245 245.3198Q33.474995 245.97604 33.599995 246.24167Q33.70937 246.5073 33.92812 246.66354Q34.14687 246.80417 34.42812 246.80417Q34.849995 246.80417 35.131245 246.49167Q35.412495 246.16354 35.412495 245.55417Q35.412495 244.9448 35.14687 244.47604Q34.881245 243.99167 34.412495 243.77292Q34.05312 243.60104 33.36562 243.60104L32.974995 243.60104ZM36.099995 240.60104L27.506245 240.60104L27.506245 239.53854L36.099995 239.53854L36.099995 240.60104ZM36.099995 234.3198L30.693745 234.3198L30.693745 235.2573L29.881245 235.2573L29.881245 234.3198L29.20937 234.3198Q28.58437 234.3198 28.287495 234.21042Q27.86562 234.05417 27.61562 233.67917Q27.36562 233.28854 27.36562 232.60104Q27.36562 232.14792 27.474995 231.61667L28.381245 231.77292Q28.33437 232.10104 28.33437 232.39792Q28.33437 232.8823 28.537495 233.08542Q28.74062 233.27292 29.30312 233.27292L29.881245 233.27292L29.881245 232.05417L30.693745 232.05417L30.693745 233.27292L36.099995 233.27292L36.099995 234.3198ZM34.099995 227.3198L34.224995 226.22604Q35.17812 226.47604 35.70937 227.17917Q36.24062 227.8823 36.24062 228.96042Q36.24062 230.3198 35.39687 231.1323Q34.55312 231.92917 33.037495 231.92917Q31.474995 231.92917 30.61562 231.11667Q29.74062 230.30417 29.74062 229.02292Q29.74062 227.77292 30.58437 226.99167Q31.42812 226.1948 32.974995 226.1948Q33.068745 226.1948 33.256245 226.1948L33.256245 230.83542Q34.287495 230.77292 34.83437 230.2573Q35.36562 229.74167 35.36562 228.96042Q35.36562 228.3823 35.068745 227.97604Q34.756245 227.55417 34.099995 227.3198ZM32.39687 230.77292L32.39687 227.30417Q31.599995 227.36667 31.20937 227.6948Q30.599995 228.21042 30.599995 229.0073Q30.599995 229.74167 31.08437 230.24167Q31.568745 230.72604 32.39687 230.77292ZM34.099995 220.3198L34.224995 219.22604Q35.17812 219.47604 35.70937 220.17917Q36.24062 220.8823 36.24062 221.96042Q36.24062 223.3198 35.39687 224.1323Q34.55312 224.92917 33.037495 224.92917Q31.474995 224.92917 30.61562 224.11667Q29.74062 223.30417 29.74062 222.02292Q29.74062 220.77292 30.58437 219.99167Q31.42812 219.1948 32.974995 219.1948Q33.068745 219.1948 33.256245 219.1948L33.256245 223.83542Q34.287495 223.77292 34.83437 223.2573Q35.36562 222.74167 35.36562 221.96042Q35.36562 221.3823 35.068745 220.97604Q34.756245 220.55417 34.099995 220.3198ZM32.39687 223.77292L32.39687 220.30417Q31.599995 220.36667 31.20937 220.6948Q30.599995 221.21042 30.599995 222.0073Q30.599995 222.74167 31.08437 223.24167Q31.568745 223.72604 32.39687 223.77292Z" fill-rule="nonzero"/><path fill="#000000" d="M60.084373 430.13437L60.084373 429.0875Q59.303123 428.97812 58.803123 428.72812Q58.303123 428.47812 57.94375 427.91562Q57.584373 427.3375 57.521873 426.50937L58.584373 426.32187Q58.709373 427.16562 59.021873 427.55624Q59.475 428.11874 60.084373 428.19687L60.084373 424.8375Q59.44375 424.7125 58.75625 424.32187Q58.25625 424.04062 57.975 423.55624Q57.709373 423.05624 57.709373 422.41562Q57.709373 421.29062 58.50625 420.60312Q59.0375 420.13437 60.084373 420.025L60.084373 419.525L60.709373 419.525L60.709373 420.025Q61.63125 420.10312 62.1625 420.55624Q62.865623 421.13437 63.00625 422.13437L61.9125 422.30624Q61.81875 421.68124 61.521873 421.35312Q61.225 421.025 60.709373 420.91562L60.709373 423.94687Q61.50625 424.15 61.771873 424.25937Q62.25625 424.47812 62.56875 424.79062Q62.88125 425.10312 63.0375 425.54062Q63.209373 425.9625 63.209373 426.4625Q63.209373 427.55624 62.50625 428.29062Q61.81875 429.025 60.709373 429.07187L60.709373 430.13437L60.084373 430.13437ZM60.084373 420.9Q59.475 420.99374 59.115623 421.4Q58.771873 421.79062 58.771873 422.3375Q58.771873 422.86874 59.06875 423.24374Q59.365623 423.60312 60.084373 423.82187L60.084373 420.9ZM60.709373 428.19687Q61.31875 428.11874 61.725 427.66562Q62.13125 427.19687 62.13125 426.525Q62.13125 425.94687 61.834373 425.60312Q61.553123 425.25937 60.709373 424.97812L60.709373 428.19687ZM64.6 424.66562Q64.6 423.13437 64.9125 422.2125Q65.225 421.275 65.83437 420.775Q66.45937 420.275 67.39687 420.275Q68.08437 420.275 68.6 420.55624Q69.13125 420.8375 69.475 421.36874Q69.81875 421.88437 70.00625 422.63437Q70.19375 423.38437 70.19375 424.66562Q70.19375 426.18124 69.88125 427.10312Q69.58437 428.025 68.95937 428.54062Q68.35 429.04062 67.39687 429.04062Q66.1625 429.04062 65.44375 428.15Q64.6 427.0875 64.6 424.66562ZM65.67812 424.66562Q65.67812 426.775 66.17812 427.47812Q66.67812 428.18124 67.39687 428.18124Q68.13125 428.18124 68.61562 427.47812Q69.11562 426.775 69.11562 424.66562Q69.11562 422.54062 68.61562 421.85312Q68.13125 421.15 67.38125 421.15Q66.6625 421.15 66.225 421.75937Q65.67812 422.54062 65.67812 424.66562ZM72.1625 428.9L72.1625 427.69687L73.36562 427.69687L73.36562 428.9Q73.36562 429.55624 73.13125 429.9625Q72.89687 430.38437 72.39687 430.60312L72.1 430.15Q72.42812 430.00937 72.58437 429.7125Q72.74062 429.43124 72.77187 428.9L72.1625 428.9ZM74.6 424.66562Q74.6 423.13437 74.9125 422.2125Q75.225 421.275 75.83437 420.775Q76.45937 420.275 77.39687 420.275Q78.08437 420.275 78.6 420.55624Q79.13125 420.8375 79.475 421.36874Q79.81875 421.88437 80.00625 422.63437Q80.19375 423.38437 80.19375 424.66562Q80.19375 426.18124 79.88125 427.10312Q79.58437 428.025 78.95937 428.54062Q78.35 429.04062 77.39687 429.04062Q76.1625 429.04062 75.44375 428.15Q74.6 427.0875 74.6 424.66562ZM75.67812 424.66562Q75.67812 426.775 76.17812 427.47812Q76.67812 428.18124 77.39687 428.18124Q78.13125 428.18124 78.61562 427.47812Q79.11562 426.775 79.11562 424.66562Q79.11562 422.54062 78.61562 421.85312Q78.13125 421.15 77.38125 421.15Q76.6625 421.15 76.225 421.75937Q75.67812 422.54062 75.67812 424.66562ZM81.6 424.66562Q81.6 423.13437 81.9125 422.2125Q82.225 421.275 82.83437 420.775Q83.45937 420.275 84.39687 420.275Q85.08437 420.275 85.6 420.55624Q86.13125 420.8375 86.475 421.36874Q86.81875 421.88437 87.00625 422.63437Q87.19375 423.38437 87.19375 424.66562Q87.19375 426.18124 86.88125 427.10312Q86.58437 428.025 85.95937 428.54062Q85.35 429.04062 84.39687 429.04062Q83.1625 429.04062 82.44375 428.15Q81.6 427.0875 81.6 424.66562ZM82.67812 424.66562Q82.67812 426.775 83.17812 427.47812Q83.67812 428.18124 84.39687 428.18124Q85.13125 428.18124 85.61562 427.47812Q86.11562 426.775 86.11562 424.66562Q86.11562 422.54062 85.61562 421.85312Q85.13125 421.15 84.38125 421.15Q83.6625 421.15 83.225 421.75937Q82.67812 422.54062 82.67812 424.66562Z" fill-rule="nonzero"/><path fill="#000000" d="M60.084373 312.7788L60.084373 311.73193Q59.303123 311.62256 58.803123 311.37256Q58.303123 311.12256 57.94375 310.56006Q57.584373 309.98193 57.521873 309.1538L58.584373 308.9663Q58.709373 309.81006 59.021873 310.20068Q59.475 310.76318 60.084373 310.8413L60.084373 307.48193Q59.44375 307.35693 58.75625 306.9663Q58.25625 306.68506 57.975 306.20068Q57.709373 305.70068 57.709373 305.06006Q57.709373 303.93506 58.50625 303.24756Q59.0375 302.7788 60.084373 302.66943L60.084373 302.16943L60.709373 302.16943L60.709373 302.66943Q61.63125 302.74756 62.1625 303.20068Q62.865623 303.7788 63.00625 304.7788L61.9125 304.95068Q61.81875 304.32568 61.521873 303.99756Q61.225 303.66943 60.709373 303.56006L60.709373 306.5913Q61.50625 306.79443 61.771873 306.9038Q62.25625 307.12256 62.56875 307.43506Q62.88125 307.74756 63.0375 308.18506Q63.209373 308.60693 63.209373 309.10693Q63.209373 310.20068 62.50625 310.93506Q61.81875 311.66943 60.709373 311.7163L60.709373 312.7788L60.084373 312.7788ZM60.084373 303.54443Q59.475 303.63818 59.115623 304.04443Q58.771873 304.43506 58.771873 304.98193Q58.771873 305.51318 59.06875 305.88818Q59.365623 306.24756 60.084373 306.4663L60.084373 303.54443ZM60.709373 310.8413Q61.31875 310.76318 61.725 310.31006Q62.13125 309.8413 62.13125 309.16943Q62.13125 308.5913 61.834373 308.24756Q61.553123 307.9038 60.709373 307.62256L60.709373 310.8413ZM68.56875 311.54443L67.52187 311.54443L67.52187 304.82568Q67.13125 305.18506 66.50625 305.56006Q65.89687 305.91943 65.4125 306.0913L65.4125 305.07568Q66.2875 304.6538 66.94375 304.07568Q67.61562 303.48193 67.89687 302.91943L68.56875 302.91943L68.56875 311.54443ZM72.1625 311.54443L72.1625 310.3413L73.36562 310.3413L73.36562 311.54443Q73.36562 312.20068 73.13125 312.60693Q72.89687 313.0288 72.39687 313.24756L72.1 312.79443Q72.42812 312.6538 72.58437 312.35693Q72.74062 312.07568 72.77187 311.54443L72.1625 311.54443ZM74.6 307.31006Q74.6 305.7788 74.9125 304.85693Q75.225 303.91943 75.83437 303.41943Q76.45937 302.91943 77.39687 302.91943Q78.08437 302.91943 78.6 303.20068Q79.13125 303.48193 79.475 304.01318Q79.81875 304.5288 80.00625 305.2788Q80.19375 306.0288 80.19375 307.31006Q80.19375 308.82568 79.88125 309.74756Q79.58437 310.66943 78.95937 311.18506Q78.35 311.68506 77.39687 311.68506Q76.1625 311.68506 75.44375 310.79443Q74.6 309.73193 74.6 307.31006ZM75.67812 307.31006Q75.67812 309.41943 76.17812 310.12256Q76.67812 310.82568 77.39687 310.82568Q78.13125 310.82568 78.61562 310.12256Q79.11562 309.41943 79.11562 307.31006Q79.11562 305.18506 78.61562 304.49756Q78.13125 303.79443 77.38125 303.79443Q76.6625 303.79443 76.225 304.4038Q75.67812 305.18506 75.67812 307.31006ZM81.6 307.31006Q81.6 305.7788 81.9125 304.85693Q82.225 303.91943 82.83437 303.41943Q83.45937 302.91943 84.39687 302.91943Q85.08437 302.91943 85.6 303.20068Q86.13125 303.48193 86.475 304.01318Q86.81875 304.5288 87.00625 305.2788Q87.19375 306.0288 87.19375 307.31006Q87.19375 308.82568 86.88125 309.74756Q86.58437 310.66943 85.95937 311.18506Q85.35 311.68506 84.39687 311.68506Q83.1625 311.68506 82.44375 310.79443Q81.6 309.73193 81.6 307.31006ZM82.67812 307.31006Q82.67812 309.41943 83.17812 310.12256Q83.67812 310.82568 84.39687 310.82568Q85.13125 310.82568 85.61562 310.12256Q86.11562 309.41943 86.11562 307.31006Q86.11562 305.18506 85.61562 304.49756Q85.13125 303.79443 84.38125 303.79443Q83.6625 303.79443 83.225 304.4038Q82.67812 305.18506 82.67812 307.31006Z" fill-rule="nonzero"/><path fill="#000000" d="M60.084373 195.42326L60.084373 194.37639Q59.303123 194.26701 58.803123 194.01701Q58.303123 193.76701 57.94375 193.20451Q57.584373 192.62639 57.521873 191.79826L58.584373 191.61076Q58.709373 192.45451 59.021873 192.84514Q59.475 193.40764 60.084373 193.48576L60.084373 190.12639Q59.44375 190.00139 58.75625 189.61076Q58.25625 189.32951 57.975 188.84514Q57.709373 188.34514 57.709373 187.70451Q57.709373 186.57951 58.50625 185.89201Q59.0375 185.42326 60.084373 185.31389L60.084373 184.81389L60.709373 184.81389L60.709373 185.31389Q61.63125 185.39201 62.1625 185.84514Q62.865623 186.42326 63.00625 187.42326L61.9125 187.59514Q61.81875 186.97014 61.521873 186.64201Q61.225 186.31389 60.709373 186.20451L60.709373 189.23576Q61.50625 189.43889 61.771873 189.54826Q62.25625 189.76701 62.56875 190.07951Q62.88125 190.39201 63.0375 190.82951Q63.209373 191.25139 63.209373 191.75139Q63.209373 192.84514 62.50625 193.57951Q61.81875 194.31389 60.709373 194.36076L60.709373 195.42326L60.084373 195.42326ZM60.084373 186.18889Q59.475 186.28264 59.115623 186.68889Q58.771873 187.07951 58.771873 187.62639Q58.771873 188.15764 59.06875 188.53264Q59.365623 188.89201 60.084373 189.11076L60.084373 186.18889ZM60.709373 193.48576Q61.31875 193.40764 61.725 192.95451Q62.13125 192.48576 62.13125 191.81389Q62.13125 191.23576 61.834373 190.89201Q61.553123 190.54826 60.709373 190.26701L60.709373 193.48576ZM70.14687 193.17326L70.14687 194.18889L64.45937 194.18889Q64.45937 193.81389 64.58437 193.45451Q64.80312 192.87639 65.27187 192.31389Q65.75625 191.75139 66.6625 191.01701Q68.06875 189.86076 68.55312 189.18889Q69.05312 188.51701 69.05312 187.92326Q69.05312 187.29826 68.6 186.87639Q68.14687 186.43889 67.42812 186.43889Q66.6625 186.43889 66.20937 186.89201Q65.75625 187.34514 65.74062 188.15764L64.6625 188.04826Q64.77187 186.82951 65.49062 186.20451Q66.225 185.56389 67.45937 185.56389Q68.69375 185.56389 69.4125 186.25139Q70.13125 186.93889 70.13125 187.95451Q70.13125 188.47014 69.9125 188.97014Q69.70937 189.45451 69.20937 190.01701Q68.725 190.56389 67.6 191.51701Q66.64687 192.31389 66.36562 192.61076Q66.1 192.89201 65.92812 193.17326L70.14687 193.17326ZM72.1625 194.18889L72.1625 192.98576L73.36562 192.98576L73.36562 194.18889Q73.36562 194.84514 73.13125 195.25139Q72.89687 195.67326 72.39687 195.89201L72.1 195.43889Q72.42812 195.29826 72.58437 195.00139Q72.74062 194.72014 72.77187 194.18889L72.1625 194.18889ZM74.6 189.95451Q74.6 188.42326 74.9125 187.50139Q75.225 186.56389 75.83437 186.06389Q76.45937 185.56389 77.39687 185.56389Q78.08437 185.56389 78.6 185.84514Q79.13125 186.12639 79.475 186.65764Q79.81875 187.17326 80.00625 187.92326Q80.19375 188.67326 80.19375 189.95451Q80.19375 191.47014 79.88125 192.39201Q79.58437 193.31389 78.95937 193.82951Q78.35 194.32951 77.39687 194.32951Q76.1625 194.32951 75.44375 193.43889Q74.6 192.37639 74.6 189.95451ZM75.67812 189.95451Q75.67812 192.06389 76.17812 192.76701Q76.67812 193.47014 77.39687 193.47014Q78.13125 193.47014 78.61562 192.76701Q79.11562 192.06389 79.11562 189.95451Q79.11562 187.82951 78.61562 187.14201Q78.13125 186.43889 77.38125 186.43889Q76.6625 186.43889 76.225 187.04826Q75.67812 187.82951 75.67812 189.95451ZM81.6 189.95451Q81.6 188.42326 81.9125 187.50139Q82.225 186.56389 82.83437 186.06389Q83.45937 185.56389 84.39687 185.56389Q85.08437 185.56389 85.6 185.84514Q86.13125 186.12639 86.475 186.65764Q86.81875 187.17326 87.00625 187.92326Q87.19375 188.67326 87.19375 189.95451Q87.19375 191.47014 86.88125 192.39201Q86.58437 193.31389 85.95937 193.82951Q85.35 194.32951 84.39687 194.32951Q83.1625 194.32951 82.44375 193.43889Q81.6 192.37639 81.6 189.95451ZM82.67812 189.95451Q82.67812 192.06389 83.17812 192.76701Q83.67812 193.47014 84.39687 193.47014Q85.13125 193.47014 85.61562 192.76701Q86.11562 192.06389 86.11562 189.95451Q86.11562 187.82951 85.61562 187.14201Q85.13125 186.43889 84.38125 186.43889Q83.6625 186.43889 83.225 187.04826Q82.67812 187.82951 82.67812 189.95451Z" fill-rule="nonzero"/><path fill="#000000" d="M60.084373 78.06771L60.084373 77.020836Q59.303123 76.91146 58.803123 76.66146Q58.303123 76.41146 57.94375 75.84896Q57.584373 75.270836 57.521873 74.44271L58.584373 74.25521Q58.709373 75.09896 59.021873 75.489586Q59.475 76.052086 60.084373 76.13021L60.084373 72.770836Q59.44375 72.645836 58.75625 72.25521Q58.25625 71.97396 57.975 71.489586Q57.709373 70.989586 57.709373 70.34896Q57.709373 69.22396 58.50625 68.53646Q59.0375 68.06771 60.084373 67.958336L60.084373 67.458336L60.709373 67.458336L60.709373 67.958336Q61.63125 68.03646 62.1625 68.489586Q62.865623 69.06771 63.00625 70.06771L61.9125 70.239586Q61.81875 69.614586 61.521873 69.28646Q61.225 68.958336 60.709373 68.84896L60.709373 71.88021Q61.50625 72.083336 61.771873 72.19271Q62.25625 72.41146 62.56875 72.72396Q62.88125 73.03646 63.0375 73.47396Q63.209373 73.895836 63.209373 74.395836Q63.209373 75.489586 62.50625 76.22396Q61.81875 76.958336 60.709373 77.00521L60.709373 78.06771L60.084373 78.06771ZM60.084373 68.833336Q59.475 68.927086 59.115623 69.333336Q58.771873 69.72396 58.771873 70.270836Q58.771873 70.802086 59.06875 71.177086Q59.365623 71.53646 60.084373 71.75521L60.084373 68.833336ZM60.709373 76.13021Q61.31875 76.052086 61.725 75.59896Q62.13125 75.13021 62.13125 74.458336Q62.13125 73.88021 61.834373 73.53646Q61.553123 73.19271 60.709373 72.91146L60.709373 76.13021ZM64.6 74.56771L65.6625 74.427086Q65.83437 75.31771 66.27187 75.72396Q66.70937 76.114586 67.33437 76.114586Q68.08437 76.114586 68.6 75.59896Q69.11562 75.083336 69.11562 74.31771Q69.11562 73.59896 68.63125 73.13021Q68.1625 72.645836 67.42812 72.645836Q67.13125 72.645836 66.67812 72.770836L66.80312 71.833336Q66.9125 71.84896 66.975 71.84896Q67.64687 71.84896 68.17812 71.50521Q68.725 71.145836 68.725 70.41146Q68.725 69.833336 68.33437 69.458336Q67.94375 69.06771 67.31875 69.06771Q66.70937 69.06771 66.2875 69.458336Q65.88125 69.84896 65.77187 70.614586L64.70937 70.427086Q64.89687 69.38021 65.58437 68.802086Q66.27187 68.208336 67.2875 68.208336Q67.99062 68.208336 68.58437 68.520836Q69.17812 68.81771 69.49062 69.333336Q69.80312 69.84896 69.80312 70.44271Q69.80312 70.989586 69.50625 71.458336Q69.20937 71.91146 68.63125 72.177086Q69.38125 72.34896 69.80312 72.91146Q70.225 73.458336 70.225 74.302086Q70.225 75.427086 69.39687 76.208336Q68.58437 76.989586 67.33437 76.989586Q66.20937 76.989586 65.45937 76.31771Q64.70937 75.63021 64.6 74.56771ZM72.1625 76.833336L72.1625 75.63021L73.36562 75.63021L73.36562 76.833336Q73.36562 77.489586 73.13125 77.895836Q72.89687 78.31771 72.39687 78.53646L72.1 78.083336Q72.42812 77.94271 72.58437 77.645836Q72.74062 77.364586 72.77187 76.833336L72.1625 76.833336ZM74.6 72.59896Q74.6 71.06771 74.9125 70.145836Q75.225 69.208336 75.83437 68.708336Q76.45937 68.208336 77.39687 68.208336Q78.08437 68.208336 78.6 68.489586Q79.13125 68.770836 79.475 69.302086Q79.81875 69.81771 80.00625 70.56771Q80.19375 71.31771 80.19375 72.59896Q80.19375 74.114586 79.88125 75.03646Q79.58437 75.958336 78.95937 76.47396Q78.35 76.97396 77.39687 76.97396Q76.1625 76.97396 75.44375 76.083336Q74.6 75.020836 74.6 72.59896ZM75.67812 72.59896Q75.67812 74.708336 76.17812 75.41146Q76.67812 76.114586 77.39687 76.114586Q78.13125 76.114586 78.61562 75.41146Q79.11562 74.708336 79.11562 72.59896Q79.11562 70.47396 78.61562 69.78646Q78.13125 69.083336 77.38125 69.083336Q76.6625 69.083336 76.225 69.69271Q75.67812 70.47396 75.67812 72.59896ZM81.6 72.59896Q81.6 71.06771 81.9125 70.145836Q82.225 69.208336 82.83437 68.708336Q83.45937 68.208336 84.39687 68.208336Q85.08437 68.208336 85.6 68.489586Q86.13125 68.770836 86.475 69.302086Q86.81875 69.81771 87.00625 70.56771Q87.19375 71.31771 87.19375 72.59896Q87.19375 74.114586 86.88125 75.03646Q86.58437 75.958336 85.95937 76.47396Q85.35 76.97396 84.39687 76.97396Q83.1625 76.97396 82.44375 76.083336Q81.6 75.020836 81.6 72.59896ZM82.67812 72.59896Q82.67812 74.708336 83.17812 75.41146Q83.67812 76.114586 84.39687 76.114586Q85.13125 76.114586 85.61562 75.41146Q86.11562 74.708336 86.11562 72.59896Q86.11562 70.47396 85.61562 69.78646Q85.13125 69.083336 84.38125 69.083336Q83.6625 69.083336 83.225 69.69271Q82.67812 70.47396 82.67812 72.59896Z" fill-rule="nonzero"/><path fill="#000000" d="M138.30624 441.9L137.25937 441.9L137.25937 435.18124Q136.86874 435.54062 136.24374 435.91562Q135.63437 436.275 135.15 436.44687L135.15 435.43124Q136.025 435.00937 136.68124 434.43124Q137.35312 433.8375 137.63437 433.275L138.30624 433.275L138.30624 441.9Z" fill-rule="nonzero"/><path fill="#000000" d="M226.35938 440.88437L226.35938 441.9L220.67188 441.9Q220.67188 441.525 220.79688 441.16562Q221.01562 440.5875 221.48438 440.025Q221.96875 439.4625 222.875 438.72812Q224.28125 437.57187 224.76562 436.9Q225.26562 436.22812 225.26562 435.63437Q225.26562 435.00937 224.8125 434.5875Q224.35938 434.15 223.64062 434.15Q222.875 434.15 222.42188 434.60312Q221.96875 435.05624 221.95312 435.86874L220.875 435.75937Q220.98438 434.54062 221.70312 433.91562Q222.4375 433.275 223.67188 433.275Q224.90625 433.275 225.625 433.9625Q226.34375 434.65 226.34375 435.66562Q226.34375 436.18124 226.125 436.68124Q225.92188 437.16562 225.42188 437.72812Q224.9375 438.275 223.8125 439.22812Q222.85938 440.025 222.57812 440.32187Q222.3125 440.60312 222.14062 440.88437L226.35938 440.88437Z" fill-rule="nonzero"/><path fill="#000000" d="M307.2875 439.65L308.39688 439.55624Q308.52188 440.36874 308.95938 440.775Q309.4125 441.18124 310.05313 441.18124Q310.80313 441.18124 311.33438 440.60312Q311.86563 440.025 311.86563 439.0875Q311.86563 438.18124 311.35 437.66562Q310.85 437.13437 310.02188 437.13437Q309.52188 437.13437 309.1 437.36874Q308.69376 437.60312 308.45938 437.9625L307.475 437.8375L308.30313 433.43124L312.58438 433.43124L312.58438 434.43124L309.14688 434.43124L308.69376 436.74374Q309.45938 436.19687 310.30313 436.19687Q311.42813 436.19687 312.19376 436.97812Q312.975 437.75937 312.975 438.99374Q312.975 440.15 312.30313 441.00937Q311.475 442.04062 310.05313 442.04062Q308.88126 442.04062 308.13126 441.38437Q307.39688 440.72812 307.2875 439.65Z" fill-rule="nonzero"/><path fill="#000000" d="M394.23126 441.9L393.1844 441.9L393.1844 435.18124Q392.79376 435.54062 392.16876 435.91562Q391.5594 436.275 391.075 436.44687L391.075 435.43124Q391.95 435.00937 392.60626 434.43124Q393.27814 433.8375 393.5594 433.275L394.23126 433.275L394.23126 441.9ZM397.2625 437.66562Q397.2625 436.13437 397.575 435.2125Q397.8875 434.275 398.4969 433.775Q399.1219 433.275 400.0594 433.275Q400.7469 433.275 401.2625 433.55624Q401.79376 433.8375 402.1375 434.36874Q402.48126 434.88437 402.66876 435.63437Q402.85626 436.38437 402.85626 437.66562Q402.85626 439.18124 402.54376 440.10312Q402.2469 441.025 401.6219 441.54062Q401.0125 442.04062 400.0594 442.04062Q398.825 442.04062 398.10626 441.15Q397.2625 440.0875 397.2625 437.66562ZM398.34064 437.66562Q398.34064 439.775 398.84064 440.47812Q399.34064 441.18124 400.0594 441.18124Q400.79376 441.18124 401.27814 440.47812Q401.77814 439.775 401.77814 437.66562Q401.77814 435.54062 401.27814 434.85312Q400.79376 434.15 400.04376 434.15Q399.325 434.15 398.8875 434.75937Q398.34064 435.54062 398.34064 437.66562Z" fill-rule="nonzero"/><path fill="#000000" d="M482.28436 440.88437L482.28436 441.9L476.59686 441.9Q476.59686 441.525 476.72186 441.16562Q476.9406 440.5875 477.40936 440.025Q477.89374 439.4625 478.8 438.72812Q480.20624 437.57187 480.6906 436.9Q481.1906 436.22812 481.1906 435.63437Q481.1906 435.00937 480.7375 434.5875Q480.28436 434.15 479.5656 434.15Q478.8 434.15 478.34686 434.60312Q477.89374 435.05624 477.8781 435.86874L476.8 435.75937Q476.90936 434.54062 477.6281 433.91562Q478.3625 433.275 479.59686 433.275Q480.83124 433.275 481.55 433.9625Q482.26874 434.65 482.26874 435.66562Q482.26874 436.18124 482.05 436.68124Q481.84686 437.16562 481.34686 437.72812Q480.8625 438.275 479.7375 439.22812Q478.78436 440.025 478.5031 440.32187Q478.2375 440.60312 478.0656 440.88437L482.28436 440.88437ZM483.7375 439.65L484.84686 439.55624Q484.97186 440.36874 485.40936 440.775Q485.8625 441.18124 486.5031 441.18124Q487.2531 441.18124 487.78436 440.60312Q488.3156 440.025 488.3156 439.0875Q488.3156 438.18124 487.8 437.66562Q487.3 437.13437 486.47186 437.13437Q485.97186 437.13437 485.55 437.36874Q485.14374 437.60312 484.90936 437.9625L483.925 437.8375L484.7531 433.43124L489.03436 433.43124L489.03436 434.43124L485.59686 434.43124L485.14374 436.74374Q485.90936 436.19687 486.7531 436.19687Q487.8781 436.19687 488.64374 436.97812Q489.425 437.75937 489.425 438.99374Q489.425 440.15 488.7531 441.00937Q487.925 442.04062 486.5031 442.04062Q485.33124 442.04062 484.58124 441.38437Q483.84686 440.72812 483.7375 439.65Z" fill-rule="nonzero"/><path fill="#000000" d="M563.2125 439.65L564.3219 439.55624Q564.4469 440.36874 564.8844 440.775Q565.3375 441.18124 565.97815 441.18124Q566.72815 441.18124 567.2594 440.60312Q567.79065 440.025 567.79065 439.0875Q567.79065 438.18124 567.275 437.66562Q566.775 437.13437 565.9469 437.13437Q565.4469 437.13437 565.025 437.36874Q564.6188 437.60312 564.3844 437.9625L563.4 437.8375L564.22815 433.43124L568.5094 433.43124L568.5094 434.43124L565.0719 434.43124L564.6188 436.74374Q565.3844 436.19687 566.22815 436.19687Q567.35315 436.19687 568.1188 436.97812Q568.9 437.75937 568.9 438.99374Q568.9 440.15 568.22815 441.00937Q567.4 442.04062 565.97815 442.04062Q564.8063 442.04062 564.0563 441.38437Q563.3219 440.72812 563.2125 439.65ZM570.2125 437.66562Q570.2125 436.13437 570.525 435.2125Q570.8375 434.275 571.4469 433.775Q572.0719 433.275 573.0094 433.275Q573.6969 433.275 574.2125 433.55624Q574.7438 433.8375 575.0875 434.36874Q575.4313 434.88437 575.6188 435.63437Q575.8063 436.38437 575.8063 437.66562Q575.8063 439.18124 575.4938 440.10312Q575.1969 441.025 574.5719 441.54062Q573.9625 442.04062 573.0094 442.04062Q571.775 442.04062 571.0563 441.15Q570.2125 440.0875 570.2125 437.66562ZM571.29065 437.66562Q571.29065 439.775 571.79065 440.47812Q572.29065 441.18124 573.0094 441.18124Q573.7438 441.18124 574.22815 440.47812Q574.72815 439.775 574.72815 437.66562Q574.72815 435.54062 574.22815 434.85312Q573.7438 434.15 572.9938 434.15Q572.275 434.15 571.8375 434.75937Q571.29065 435.54062 571.29065 437.66562Z" fill-rule="nonzero"/><path fill="#000000" d="M649.75 434.43124L649.75 433.41562L655.3125 433.41562L655.3125 434.24374Q654.5 435.11874 653.6875 436.57187Q652.8906 438.00937 652.4531 439.54062Q652.125 440.61874 652.0469 441.9L650.9531 441.9Q650.96875 440.88437 651.34375 439.44687Q651.7344 438.00937 652.4375 436.68124Q653.15625 435.35312 653.96875 434.43124L649.75 434.43124ZM656.6875 439.65L657.7969 439.55624Q657.9219 440.36874 658.3594 440.775Q658.8125 441.18124 659.4531 441.18124Q660.2031 441.18124 660.7344 440.60312Q661.2656 440.025 661.2656 439.0875Q661.2656 438.18124 660.75 437.66562Q660.25 437.13437 659.4219 437.13437Q658.9219 437.13437 658.5 437.36874Q658.09375 437.60312 657.8594 437.9625L656.875 437.8375L657.7031 433.43124L661.9844 433.43124L661.9844 434.43124L658.5469 434.43124L658.09375 436.74374Q658.8594 436.19687 659.7031 436.19687Q660.8281 436.19687 661.59375 436.97812Q662.375 437.75937 662.375 438.99374Q662.375 440.15 661.7031 441.00937Q660.875 442.04062 659.4531 442.04062Q658.28125 442.04062 657.53125 441.38437Q656.7969 440.72812 656.6875 439.65Z" fill-rule="nonzero"/><path fill="#000000" d="M736.6312 441.9L735.58435 441.9L735.58435 435.18124Q735.1937 435.54062 734.5687 435.91562Q733.95935 436.275 733.475 436.44687L733.475 435.43124Q734.35 435.00937 735.0062 434.43124Q735.6781 433.8375 735.95935 433.275L736.6312 433.275L736.6312 441.9ZM739.6625 437.66562Q739.6625 436.13437 739.975 435.2125Q740.2875 434.275 740.89685 433.775Q741.52185 433.275 742.45935 433.275Q743.14685 433.275 743.6625 433.55624Q744.1937 433.8375 744.5375 434.36874Q744.8812 434.88437 745.0687 435.63437Q745.2562 436.38437 745.2562 437.66562Q745.2562 439.18124 744.9437 440.10312Q744.64685 441.025 744.02185 441.54062Q743.4125 442.04062 742.45935 442.04062Q741.225 442.04062 740.5062 441.15Q739.6625 440.0875 739.6625 437.66562ZM740.7406 437.66562Q740.7406 439.775 741.2406 440.47812Q741.7406 441.18124 742.45935 441.18124Q743.1937 441.18124 743.6781 440.47812Q744.1781 439.775 744.1781 437.66562Q744.1781 435.54062 743.6781 434.85312Q743.1937 434.15 742.4437 434.15Q741.725 434.15 741.2875 434.75937Q740.7406 435.54062 740.7406 437.66562ZM746.6625 437.66562Q746.6625 436.13437 746.975 435.2125Q747.2875 434.275 747.89685 433.775Q748.52185 433.275 749.45935 433.275Q750.14685 433.275 750.6625 433.55624Q751.1937 433.8375 751.5375 434.36874Q751.8812 434.88437 752.0687 435.63437Q752.2562 436.38437 752.2562 437.66562Q752.2562 439.18124 751.9437 440.10312Q751.64685 441.025 751.02185 441.54062Q750.4125 442.04062 749.45935 442.04062Q748.225 442.04062 747.5062 441.15Q746.6625 440.0875 746.6625 437.66562ZM747.7406 437.66562Q747.7406 439.775 748.2406 440.47812Q748.7406 441.18124 749.45935 441.18124Q750.1937 441.18124 750.6781 440.47812Q751.1781 439.775 751.1781 437.66562Q751.1781 435.54062 750.6781 434.85312Q750.1937 434.15 749.4437 434.15Q748.725 434.15 748.2875 434.75937Q747.7406 435.54062 747.7406 437.66562Z" fill-rule="nonzero"/><path fill="#757575" d="M26.63125 44.1L26.63125 29.787498L28.56875 29.787498L36.084373 41.021873L36.084373 29.787498L37.896873 29.787498L37.896873 44.1L35.959373 44.1L28.44375 32.85L28.44375 44.1L26.63125 44.1ZM39.740623 44.1L39.740623 29.787498L49.396873 29.787498L49.396873 31.474998L41.63125 31.474998L41.63125 35.9125L48.35 35.9125L48.35 37.6L41.63125 37.6L41.63125 44.1L39.740623 44.1ZM55.2875 44.1L55.2875 31.474998L50.56875 31.474998L50.56875 29.787498L61.9125 29.787498L61.9125 31.474998L57.178123 31.474998L57.178123 44.1L55.2875 44.1ZM73.25625 42.521873L73.50625 44.084373Q72.77187 44.240623 72.17812 44.240623Q71.225 44.240623 70.69375 43.94375Q70.17812 43.63125 69.95937 43.146873Q69.74062 42.646873 69.74062 41.06875L69.74062 35.1L68.45937 35.1L68.45937 33.725L69.74062 33.725L69.74062 31.162498L71.49062 30.099998L71.49062 33.725L73.25625 33.725L73.25625 35.1L71.49062 35.1L71.49062 41.1625Q71.49062 41.9125 71.58437 42.13125Q71.67812 42.334373 71.88125 42.475Q72.1 42.6 72.49062 42.6Q72.77187 42.6 73.25625 42.521873ZM75.39687 44.1L75.39687 33.725L76.975 33.725L76.975 35.303123Q77.58437 34.19375 78.1 33.85Q78.61562 33.490623 79.225 33.490623Q80.11562 33.490623 81.0375 34.053123L80.42812 35.69375Q79.7875 35.303123 79.14687 35.303123Q78.56875 35.303123 78.1 35.6625Q77.64687 36.00625 77.44375 36.615623Q77.1625 37.553123 77.1625 38.6625L77.1625 44.1L75.39687 44.1ZM89.19375 42.81875Q88.20937 43.646873 87.30312 43.990623Q86.39687 44.334373 85.36562 44.334373Q83.6625 44.334373 82.74062 43.50625Q81.81875 42.6625 81.81875 41.365623Q81.81875 40.6 82.1625 39.975Q82.52187 39.35 83.08437 38.975Q83.64687 38.584373 84.35 38.38125Q84.86562 38.25625 85.9125 38.115623Q88.0375 37.865623 89.0375 37.521873Q89.05312 37.1625 89.05312 37.053123Q89.05312 35.990623 88.55312 35.5375Q87.88125 34.94375 86.55312 34.94375Q85.30312 34.94375 84.70937 35.38125Q84.13125 35.81875 83.85 36.928123L82.13125 36.69375Q82.36562 35.584373 82.89687 34.9125Q83.42812 34.225 84.44375 33.865623Q85.45937 33.490623 86.80312 33.490623Q88.13125 33.490623 88.95937 33.803123Q89.7875 34.115623 90.17812 34.6Q90.56875 35.06875 90.725 35.7875Q90.81875 36.240623 90.81875 37.4125L90.81875 39.75625Q90.81875 42.209373 90.92812 42.865623Q91.0375 43.50625 91.38125 44.1L89.5375 44.1Q89.27187 43.553123 89.19375 42.81875ZM89.0375 38.896873Q88.08437 39.2875 86.1625 39.553123Q85.08437 39.709373 84.63125 39.9125Q84.19375 40.1 83.94375 40.475Q83.69375 40.85 83.69375 41.31875Q83.69375 42.021873 84.225 42.490623Q84.75625 42.959373 85.7875 42.959373Q86.80312 42.959373 87.58437 42.521873Q88.38125 42.06875 88.75625 41.303123Q89.0375 40.69375 89.0375 39.5375L89.0375 38.896873ZM93.4125 44.1L93.4125 33.725L95.00625 33.725L95.00625 35.209373Q96.14687 33.490623 98.30312 33.490623Q99.24062 33.490623 100.02187 33.834373Q100.81875 34.1625 101.20937 34.709373Q101.6 35.25625 101.75625 36.00625Q101.85 36.50625 101.85 37.725L101.85 44.1L100.08437 44.1L100.08437 37.7875Q100.08437 36.709373 99.88125 36.178123Q99.67812 35.646873 99.14687 35.334373Q98.63125 35.021873 97.92812 35.021873Q96.80312 35.021873 95.99062 35.740623Q95.17812 36.44375 95.17812 38.428123L95.17812 44.1L93.4125 44.1ZM102.70937 41.00625L104.45937 40.725Q104.6 41.771873 105.27187 42.334373Q105.94375 42.88125 107.14687 42.88125Q108.35 42.88125 108.92812 42.396873Q109.52187 41.896873 109.52187 41.240623Q109.52187 40.646873 109.00625 40.303123Q108.64687 40.06875 107.20937 39.709373Q105.27187 39.209373 104.52187 38.865623Q103.7875 38.50625 103.39687 37.88125Q103.00625 37.240623 103.00625 36.475Q103.00625 35.7875 103.31875 35.19375Q103.64687 34.6 104.19375 34.209373Q104.6 33.9125 105.30312 33.709373Q106.02187 33.490623 106.83437 33.490623Q108.05312 33.490623 108.975 33.85Q109.89687 34.19375 110.33437 34.803123Q110.77187 35.396873 110.94375 36.396873L109.225 36.63125Q109.1 35.834373 108.5375 35.396873Q107.975 34.94375 106.95937 34.94375Q105.74062 34.94375 105.225 35.35Q104.70937 35.740623 104.70937 36.271873Q104.70937 36.615623 104.92812 36.896873Q105.13125 37.178123 105.6 37.365623Q105.86562 37.459373 107.14687 37.803123Q109.02187 38.303123 109.75625 38.63125Q110.49062 38.94375 110.9125 39.553123Q111.33437 40.146873 111.33437 41.053123Q111.33437 41.928123 110.81875 42.709373Q110.30312 43.490623 109.33437 43.9125Q108.36562 44.334373 107.14687 44.334373Q105.13125 44.334373 104.06875 43.490623Q103.00625 42.646873 102.70937 41.00625ZM120.19375 42.81875Q119.20937 43.646873 118.30312 43.990623Q117.39687 44.334373 116.36562 44.334373Q114.6625 44.334373 113.74062 43.50625Q112.81875 42.6625 112.81875 41.365623Q112.81875 40.6 113.1625 39.975Q113.52187 39.35 114.08437 38.975Q114.64687 38.584373 115.35 38.38125Q115.86562 38.25625 116.9125 38.115623Q119.0375 37.865623 120.0375 37.521873Q120.05312 37.1625 120.05312 37.053123Q120.05312 35.990623 119.55312 35.5375Q118.88125 34.94375 117.55312 34.94375Q116.30312 34.94375 115.70937 35.38125Q115.13125 35.81875 114.85 36.928123L113.13125 36.69375Q113.36562 35.584373 113.89687 34.9125Q114.42812 34.225 115.44375 33.865623Q116.45937 33.490623 117.80312 33.490623Q119.13125 33.490623 119.95937 33.803123Q120.7875 34.115623 121.17812 34.6Q121.56875 35.06875 121.725 35.7875Q121.81875 36.240623 121.81875 37.4125L121.81875 39.75625Q121.81875 42.209373 121.92812 42.865623Q122.0375 43.50625 122.38125 44.1L120.5375 44.1Q120.27187 43.553123 120.19375 42.81875ZM120.0375 38.896873Q119.08437 39.2875 117.1625 39.553123Q116.08437 39.709373 115.63125 39.9125Q115.19375 40.1 114.94375 40.475Q114.69375 40.85 114.69375 41.31875Q114.69375 42.021873 115.225 42.490623Q115.75625 42.959373 116.7875 42.959373Q117.80312 42.959373 118.58437 42.521873Q119.38125 42.06875 119.75625 41.303123Q120.0375 40.69375 120.0375 39.5375L120.0375 38.896873ZM131.19376 40.303123L132.9125 40.521873Q132.63126 42.31875 131.45938 43.334373Q130.30313 44.334373 128.6 44.334373Q126.475 44.334373 125.17812 42.94375Q123.88125 41.553123 123.88125 38.959373Q123.88125 37.271873 124.42812 36.021873Q124.99062 34.75625 126.13125 34.13125Q127.27187 33.490623 128.61563 33.490623Q130.30313 33.490623 131.36563 34.35Q132.44376 35.209373 132.75626 36.771873L131.0375 37.0375Q130.80313 35.990623 130.17813 35.475Q129.55313 34.94375 128.67813 34.94375Q127.35 34.94375 126.52187 35.896873Q125.69375 36.85 125.69375 38.896873Q125.69375 40.990623 126.49062 41.94375Q127.2875 42.88125 128.58438 42.88125Q129.61563 42.88125 130.30313 42.25625Q131.00626 41.615623 131.19376 40.303123ZM138.25626 42.521873L138.50626 44.084373Q137.77188 44.240623 137.17813 44.240623Q136.225 44.240623 135.69376 43.94375Q135.17813 43.63125 134.95938 43.146873Q134.74063 42.646873 134.74063 41.06875L134.74063 35.1L133.45938 35.1L133.45938 33.725L134.74063 33.725L134.74063 31.162498L136.49063 30.099998L136.49063 33.725L138.25626 33.725L138.25626 35.1L136.49063 35.1L136.49063 41.1625Q136.49063 41.9125 136.58438 42.13125Q136.67813 42.334373 136.88126 42.475Q137.1 42.6 137.49063 42.6Q137.77188 42.6 138.25626 42.521873ZM140.42813 31.803123L140.42813 29.787498L142.19376 29.787498L142.19376 31.803123L140.42813 31.803123ZM140.42813 44.1L140.42813 33.725L142.19376 33.725L142.19376 44.1L140.42813 44.1ZM143.77188 38.9125Q143.77188 36.0375 145.36563 34.646873Q146.70938 33.490623 148.63126 33.490623Q150.77188 33.490623 152.11563 34.896873Q153.475 36.303123 153.475 38.771873Q153.475 40.771873 152.88126 41.928123Q152.2875 43.06875 151.13126 43.709373Q149.99063 44.334373 148.63126 44.334373Q146.44376 44.334373 145.1 42.94375Q143.77188 41.5375 143.77188 38.9125ZM145.56876 38.9125Q145.56876 40.9125 146.42813 41.896873Q147.30313 42.88125 148.63126 42.88125Q149.94376 42.88125 150.80313 41.896873Q151.67813 40.896873 151.67813 38.85Q151.67813 36.928123 150.80313 35.94375Q149.92813 34.94375 148.63126 34.94375Q147.30313 34.94375 146.42813 35.94375Q145.56876 36.928123 145.56876 38.9125ZM155.4125 44.1L155.4125 33.725L157.00626 33.725L157.00626 35.209373Q158.14688 33.490623 160.30313 33.490623Q161.24063 33.490623 162.02188 33.834373Q162.81876 34.1625 163.20938 34.709373Q163.6 35.25625 163.75626 36.00625Q163.85 36.50625 163.85 37.725L163.85 44.1L162.08438 44.1L162.08438 37.7875Q162.08438 36.709373 161.88126 36.178123Q161.67813 35.646873 161.14688 35.334373Q160.63126 35.021873 159.92813 35.021873Q158.80313 35.021873 157.99063 35.740623Q157.17813 36.44375 157.17813 38.428123L157.17813 44.1L155.4125 44.1ZM171.83438 44.1L171.83438 35.1L170.2875 35.1L170.2875 33.725L171.83438 33.725L171.83438 32.63125Q171.83438 31.584373 172.02188 31.068748Q172.27188 30.381248 172.9125 29.959373Q173.55313 29.537498 174.70938 29.537498Q175.45938 29.537498 176.35 29.709373L176.08438 31.240623Q175.5375 31.146873 175.05313 31.146873Q174.25626 31.146873 173.9125 31.490623Q173.58438 31.834373 173.58438 32.771873L173.58438 33.725L175.61563 33.725L175.61563 35.1L173.58438 35.1L173.58438 44.1L171.83438 44.1ZM184.52188 40.75625L186.33438 40.990623Q185.9125 42.56875 184.74063 43.459373Q183.58438 44.334373 181.77188 44.334373Q179.50626 44.334373 178.1625 42.94375Q176.83438 41.5375 176.83438 39.00625Q176.83438 36.38125 178.17813 34.94375Q179.52188 33.490623 181.67813 33.490623Q183.75626 33.490623 185.06876 34.9125Q186.39688 36.31875 186.39688 38.896873Q186.39688 39.053123 186.38126 39.365623L178.64688 39.365623Q178.74063 41.06875 179.61563 41.975Q180.49063 42.88125 181.7875 42.88125Q182.75626 42.88125 183.42813 42.38125Q184.11563 41.865623 184.52188 40.75625ZM178.74063 37.9125L184.5375 37.9125Q184.42813 36.615623 183.88126 35.959373Q183.0375 34.94375 181.69376 34.94375Q180.49063 34.94375 179.6625 35.75625Q178.83438 36.553123 178.74063 37.9125ZM195.52188 40.75625L197.33438 40.990623Q196.9125 42.56875 195.74063 43.459373Q194.58438 44.334373 192.77188 44.334373Q190.50626 44.334373 189.1625 42.94375Q187.83438 41.5375 187.83438 39.00625Q187.83438 36.38125 189.17813 34.94375Q190.52188 33.490623 192.67813 33.490623Q194.75626 33.490623 196.06876 34.9125Q197.39688 36.31875 197.39688 38.896873Q197.39688 39.053123 197.38126 39.365623L189.64688 39.365623Q189.74063 41.06875 190.61563 41.975Q191.49063 42.88125 192.7875 42.88125Q193.75626 42.88125 194.42813 42.38125Q195.11563 41.865623 195.52188 40.75625ZM189.74063 37.9125L195.5375 37.9125Q195.42813 36.615623 194.88126 35.959373Q194.0375 34.94375 192.69376 34.94375Q191.49063 34.94375 190.6625 35.75625Q189.83438 36.553123 189.74063 37.9125Z" fill-rule="nonzero"/></svg>
