<?xml version="1.0" encoding="UTF-8"?>
<svg width="111px" height="102px" viewBox="0 0 111 102" version="1.1" xmlns="http://www.w3.org/2000/svg" xmlns:xlink="http://www.w3.org/1999/xlink">
    <title>Blockchan</title>
    <defs>
        <rect id="path-1" x="0" y="0" width="32" height="28"></rect>
    </defs>
    <g id="Bridge" stroke="none" stroke-width="1" fill="none" fill-rule="evenodd">
        <g id="Blockchan">
            <g id="BSC" transform="translate(29.000000, 0.000000)">
                <circle id="Oval" fill="#F3BA2F" cx="24" cy="24" r="24"></circle>
                <g id="Icons_x2F_icon-24_x2F_networks_x2F_binance_x5F_smart_x5F_chain" transform="translate(8.000000, 8.000000)" fill="#131415">
                    <path d="M22.2210663,18.5547967 L25.8413524,22.1658537 L16,32 L6.16905072,22.1658537 L9.7893368,18.5547967 L16,24.7674797 L22.2210663,18.5547967 Z M16,12.3317073 L19.6723017,16.0052033 L19.6723017,16.0052033 L19.6723017,16.0052033 L16,19.6786992 L12.3381014,16.0156098 L12.3381014,16.0052033 L12.3381014,16.0052033 L12.9830949,15.36 L13.2951886,15.0478049 L16,12.3317073 Z M3.62028609,12.3837398 L7.24057217,16.0052033 L3.62028609,19.6162602 L0,15.9947967 L3.62028609,12.3837398 Z M28.3797139,12.3837398 L32,16.0052033 L28.3797139,19.6162602 L24.7594278,15.9947967 L28.3797139,12.3837398 Z M16,0 L25.8309493,9.83414634 L22.2106632,13.4556098 L16,7.23252033 L9.7893368,13.4452033 L6.16905072,9.83414634 L16,0 Z" id="Combined-Shape"></path>
                </g>
            </g>
            <g id="Polygon" transform="translate(63.000000, 54.000000)">
                <path d="M23.990558,0 L23.990558,0 C37.2514772,0 48,10.7464096 48,24.0047216 L48,24.0047216 C48,37.2630336 37.2514772,48 24,48 L24,48 C10.7390839,48 0,37.2535904 0,24.0047216 L0,24.0047216 C-0.0094388791,10.7464096 10.7390839,0 23.990558,0 Z" id="Path" fill="#8247E5" fill-rule="nonzero"></path>
                <g id="Clipped" transform="translate(8.000000, 10.000000)">
                    <mask id="mask-2" fill="white">
                        <use xlink:href="#path-1"></use>
                    </mask>
                    <g id="SVGID_1_"></g>
                    <path d="M24.1705194,8.52757794 C23.5845092,8.19184652 22.8351846,8.19184652 22.1723206,8.52757794 L17.5034524,11.2901679 L14.3332333,13.0455635 L9.75082558,15.7985612 C9.16481537,16.1342926 8.41549084,16.1342926 7.75262684,15.7985612 L4.16931852,13.6211031 C3.58330832,13.2853717 3.17021915,12.6139089 3.17021915,11.8657074 L3.17021915,7.68345324 C3.17021915,7.01199041 3.50645452,6.3501199 4.16931852,5.92805755 L7.75262684,3.83693046 C8.33863705,3.50119904 9.08796157,3.50119904 9.75082558,3.83693046 L13.3341339,6.01438849 C13.9201441,6.3501199 14.3332333,7.02158273 14.3332333,7.76978417 L14.3332333,10.5323741 L17.5034524,8.69064748 L17.5034524,5.85131894 C17.5034524,5.17985612 17.1672171,4.51798561 16.504353,4.09592326 L9.8372861,0.163069544 C9.25127589,-0.172661871 8.50195137,-0.172661871 7.83908736,0.163069544 L1.00870609,4.1822542 C0.345842089,4.51798561 0.00960672471,5.18944844 0.00960672471,5.85131894 L0.00960672471,13.7074341 C0.00960672471,14.3788969 0.345842089,15.0407674 1.00870609,15.4628297 L7.76223356,19.3956835 C8.34824377,19.7314149 9.0975683,19.7314149 9.7604323,19.3956835 L14.34284,16.7194245 L17.5130591,14.8776978 L22.0954668,12.2014388 C22.681477,11.8657074 23.4308016,11.8657074 24.0936656,12.2014388 L27.6769739,14.2925659 C28.2629841,14.6282974 28.6760733,15.2997602 28.6760733,16.0479616 L28.6760733,20.2302158 C28.6760733,20.9016787 28.3398379,21.5635492 27.6769739,21.9856115 L24.1801261,24.0767386 C23.5941159,24.41247 22.8447914,24.41247 22.1819273,24.0767386 L18.5890123,21.9856115 C18.0030021,21.6498801 17.5899129,20.9784173 17.5899129,20.2302158 L17.5899129,17.5539568 L14.4196938,19.3956835 L14.4196938,22.1582734 C14.4196938,22.8297362 14.7559292,23.4916067 15.4187932,23.9136691 L22.1723206,27.8465228 C22.7583308,28.1822542 23.5076554,28.1822542 24.1705194,27.8465228 L30.9240468,23.9136691 C31.510057,23.5779376 31.9231462,22.9064748 31.9231462,22.1582734 L31.9231462,14.2158273 C31.9231462,13.5443645 31.5869108,12.882494 30.9240468,12.4604317 L24.1705194,8.52757794 Z" id="Path" fill="#FFFFFF" fill-rule="nonzero" mask="url(#mask-2)"></path>
                </g>
            </g>
            <g id="Ethereum" transform="translate(0.000000, 54.000000)" fill-rule="nonzero">
                <g id="Group-45">
                    <circle id="Oval" fill="#627EEA" cx="24" cy="24" r="24"></circle>
                    <polygon id="Path" fill-opacity="0.602" fill="#FFFFFF" points="24.7479497 5.99671952 24.7479497 19.302351 35.993439 24.3280481"></polygon>
                    <polygon id="Path_1_" fill="#FFFFFF" points="24.7479497 5.99671952 13.5024604 24.3280481 24.7479497 19.302351"></polygon>
                    <polygon id="Path_2_" fill-opacity="0.602" fill="#FFFFFF" points="24.7479497 32.9491525 24.7479497 41.9901586 36 26.4209951"></polygon>
                    <polygon id="Path_3_" fill="#FFFFFF" points="24.7479497 41.9901586 24.7479497 32.9491525 13.5024604 26.4209951"></polygon>
                    <polygon id="Path_4_" fill-opacity="0.2" fill="#FFFFFF" points="24.7479497 30.8562056 35.993439 24.3280481 24.7479497 19.302351"></polygon>
                </g>
                <polygon id="Path_5_" fill-opacity="0.602" fill="#FFFFFF" points="14 24.2197615 25 31 25 19"></polygon>
            </g>
        </g>
    </g>
</svg>