<svg version="1.1" xmlns="http://www.w3.org/2000/svg" viewBox="0 0 766.8045654296875 362.047119140625" width="766.8045654296875" height="362.047119140625">
  <!-- svg-source:excalidraw -->
  
  <defs>
    <style>
      @font-face {
        font-family: "Virgil";
        src: url("https://excalidraw.com/Virgil.woff2");
      }
      @font-face {
        font-family: "Cascadia";
        src: url("https://excalidraw.com/Cascadia.woff2");
      }
    </style>
  </defs>
  <g stroke-linecap="round" transform="translate(11.69305419921875 120.3282470703125) rotate(0 49 24.76568603515625)"><path d="M1.38 -1.13 C19.63 -1.94, 41.64 -1.18, 99.02 1.67 M0.02 -0.42 C33.65 -0.17, 69.34 -0.19, 97.12 -0.18 M98.93 1.89 C97.05 11.71, 98.18 25.48, 98.66 49.02 M97.27 0.81 C98.47 18.6, 96.98 36.41, 97.41 49.69 M96.17 50.06 C62.91 48.5, 26.59 48.12, -1.11 50.09 M97.88 48.73 C70.74 50.88, 45.42 49.78, -0.88 49.63 M1.67 50.11 C-0.03 32.27, -1.22 14.49, -1.6 0.84 M0.45 49.6 C0.7 31.88, -0.25 14.89, -0.45 0.82" stroke="#e67700" stroke-width="1" fill="none"></path></g><g transform="translate(16.69305419921875 132.59393310546875) rotate(0 44 12.5)"><text x="44" y="18" font-family="Virgil, Segoe UI Emoji" font-size="20px" fill="#e67700" text-anchor="middle" style="white-space: pre;" direction="ltr">Biometry</text></g><g stroke-linecap="round" transform="translate(247.56109619140625 113.70330810546875) rotate(0 84.5 30)"><path d="M1.59 -0.23 C53.83 -2.25, 111.99 -0.1, 167.94 -1.76 M-0.49 0.84 C52.63 -0.03, 104.8 -0.63, 168.99 -0.8 M167.16 0.9 C169.44 22.16, 168.73 40.78, 169.19 59.1 M168.38 0.76 C169.26 23.28, 168.97 45.37, 169.39 60.36 M169.66 61.38 C122.64 56.87, 77.11 58.15, 0.98 60 M168.09 59.08 C131.81 61.57, 93.77 61.38, 0.36 60.53 M-1.99 61.15 C0.41 38.23, -1.35 20.33, 0.69 -0.27 M-0.81 60.62 C-0.57 45.77, -0.21 31.33, 0.52 0.55" stroke="#e67700" stroke-width="1" fill="none"></path></g><g transform="translate(252.56109619140625 118.70330810546875) rotate(0 79.5 25)"><text x="79.5" y="18" font-family="Virgil, Segoe UI Emoji" font-size="20px" fill="#e67700" text-anchor="middle" style="white-space: pre;" direction="ltr">Access </text><text x="79.5" y="43" font-family="Virgil, Segoe UI Emoji" font-size="20px" fill="#e67700" text-anchor="middle" style="white-space: pre;" direction="ltr">transaction</text></g><g stroke-linecap="round" transform="translate(10 292.047119140625) rotate(0 49 30)"><path d="M1.45 -1.32 C26.41 -1.41, 49.16 0.6, 97.05 -1.32 M0.51 0.86 C33.23 -0.32, 66 0.34, 98.17 -0.35 M97.29 1 C99.09 19.42, 100.01 36.7, 98.19 58.58 M97.73 0.97 C98.89 14.72, 98.49 30.17, 97.4 59.48 M97.86 60.14 C61.85 59.86, 24.66 62.1, -0.3 59.94 M98.14 60.91 C69.16 60.25, 40.62 59.74, 0.27 60.93 M-1.16 59.02 C0.79 38.52, -0.38 17.21, 0.84 1.28 M-0.5 60.67 C0.88 46, 1.31 32.57, 0.22 -0.02" stroke="#a61e4d" stroke-width="1" fill="none"></path></g><g transform="translate(15 309.547119140625) rotate(0 44 12.5)"><text x="44" y="18" font-family="Virgil, Segoe UI Emoji" font-size="20px" fill="#a61e4d" text-anchor="middle" style="white-space: pre;" direction="ltr">USB</text></g><g stroke-linecap="round" transform="translate(250.33892822265625 291.660400390625) rotate(0 84.5 30)"><path d="M-0.81 -1.4 C60.25 0.87, 123.97 2.83, 168.31 -0.17 M-0.94 -0.27 C61.19 0.17, 121.99 0.28, 168.77 -0.83 M169.76 1.9 C167.43 25.12, 167.63 48.65, 169.17 61.92 M168.58 0.63 C169.34 17.84, 169.07 34.51, 169.34 59.65 M169.83 59.95 C114.62 59.85, 56.85 57.23, -1.98 58.52 M169.21 60.1 C127.58 62.08, 86.13 60.74, -0.97 59.94 M-1.06 61.79 C-0.79 40.19, 1.53 21.48, 0.02 -1.72 M-0.26 60.1 C-0.7 47.02, -0.54 33.81, 0.31 -0.03" stroke="#a61e4d" stroke-width="1" fill="none"></path></g><g transform="translate(255.33892822265625 296.660400390625) rotate(0 79.5 25)"><text x="79.5" y="18" font-family="Virgil, Segoe UI Emoji" font-size="20px" fill="#a61e4d" text-anchor="middle" style="white-space: pre;" direction="ltr">Access </text><text x="79.5" y="43" font-family="Virgil, Segoe UI Emoji" font-size="20px" fill="#a61e4d" text-anchor="middle" style="white-space: pre;" direction="ltr">transaction</text></g><g stroke-linecap="round" transform="translate(587.8045654296875 179.1929931640625) rotate(0 84.5 30)"><path d="M1.7 1.29 C49.18 -2.88, 96.46 0.52, 167.75 -1.57 M0.71 -0.52 C52.21 0.79, 102.62 0.26, 169.07 0.77 M170.34 -0.59 C168.23 18.75, 167.57 37.22, 169.77 59.2 M169.93 0.81 C169.08 15.02, 170.05 29.63, 169.66 60.58 M170.51 60.1 C127.39 59.49, 86.24 59.42, 1.66 59.18 M169.74 59.35 C105.05 60.27, 41.38 59.89, -0.92 59.11 M1.85 59.02 C-2.02 42.61, -2.32 24.58, -1.46 -1.2 M-0.19 59.31 C-1.14 36.85, -0.73 14.15, -0.96 0.16" stroke="#d9480f" stroke-width="1" fill="none"></path></g><g transform="translate(592.8045654296875 184.1929931640625) rotate(0 79.5 25)"><text x="79.5" y="18" font-family="Virgil, Segoe UI Emoji" font-size="20px" fill="#d9480f" text-anchor="middle" style="white-space: pre;" direction="ltr">Keychain's </text><text x="79.5" y="43" font-family="Virgil, Segoe UI Emoji" font-size="20px" fill="#d9480f" text-anchor="middle" style="white-space: pre;" direction="ltr">transaction</text></g><g stroke-linecap="round"><g transform="translate(114.2864990234375 142.37289428710926) rotate(0 60.60538177900014 -0.6329992784106366)"><path d="M-0.67 0.05 C19.79 0.08, 101.24 0.51, 121.88 0.33 M1.18 -0.97 C21.52 -1.34, 100.43 -1.75, 120.71 -1.61" stroke="#e67700" stroke-width="1" fill="none"></path></g><g transform="translate(114.2864990234375 142.37289428710926) rotate(0 60.60538177900014 -0.6329992784106366)"><path d="M92.61 7.97 C99.51 7.96, 103.76 2.2, 120.39 -1.41 M92.73 9.55 C100.63 5.52, 109.13 3.41, 120.64 -2.2" stroke="#e67700" stroke-width="1" fill="none"></path></g><g transform="translate(114.2864990234375 142.37289428710926) rotate(0 60.60538177900014 -0.6329992784106366)"><path d="M92.6 -12.55 C99.53 -7.87, 103.79 -8.94, 120.39 -1.41 M92.73 -10.97 C100.51 -9.12, 109.01 -5.35, 120.64 -2.2" stroke="#e67700" stroke-width="1" fill="none"></path></g></g><g stroke-linecap="round"><g transform="translate(121.666015625 323.0113525390626) rotate(0 60.675717391446256 -0.20957959288335815)"><path d="M-0.86 -1.17 C19.54 -1.51, 101.79 -1.09, 122.22 -1.06 M0.88 0.83 C21.18 1.12, 101.45 0.1, 121.44 -0.08" stroke="#a61e4d" stroke-width="1" fill="none"></path></g><g transform="translate(121.666015625 323.0113525390626) rotate(0 60.675717391446256 -0.20957959288335815)"><path d="M91.42 11.03 C99.44 7.37, 107.46 3.58, 120.9 1.44 M93.54 11.12 C104.44 6.47, 114.78 1.74, 122.21 -0.09" stroke="#a61e4d" stroke-width="1" fill="none"></path></g><g transform="translate(121.666015625 323.0113525390626) rotate(0 60.675717391446256 -0.20957959288335815)"><path d="M91.2 -9.49 C99.46 -7.34, 107.54 -5.34, 120.9 1.44 M93.32 -9.4 C104.41 -6.51, 114.82 -3.7, 122.21 -0.09" stroke="#a61e4d" stroke-width="1" fill="none"></path></g></g><g stroke-linecap="round"><g transform="translate(425.21826171875 322.1279296874999) rotate(0 76.98889958579105 -53.56462282728404)"><path d="M-0.75 0.61 C24.89 -17.16, 129.14 -89.46, 154.72 -107.74 M1.06 -0.11 C26.55 -17.57, 128.61 -88.09, 154.28 -106.14" stroke="#a61e4d" stroke-width="1" fill="none"></path></g><g transform="translate(425.21826171875 322.1279296874999) rotate(0 76.98889958579105 -53.56462282728404)"><path d="M138.02 -80.02 C143.91 -92.42, 148.18 -100.28, 153 -107.84 M136.69 -81.65 C142.48 -88.17, 147.46 -96.17, 154.98 -106.91" stroke="#a61e4d" stroke-width="1" fill="none"></path></g><g transform="translate(425.21826171875 322.1279296874999) rotate(0 76.98889958579105 -53.56462282728404)"><path d="M126.3 -96.87 C136.42 -102.89, 145.08 -104.44, 153 -107.84 M124.96 -98.49 C134.25 -99.78, 142.85 -102.59, 154.98 -106.91" stroke="#a61e4d" stroke-width="1" fill="none"></path></g></g><g stroke-linecap="round"><g transform="translate(439.20472201317625 214.99653054427972) rotate(55.43318846197135 64.18523508678413 -42.11487716952996)"><path d="M0.93 -0.94 C22.24 -15.32, 107.23 -71.14, 128.4 -85.41 M-0.03 1.18 C21.13 -13.07, 106.61 -69.36, 127.86 -83.88" stroke="#e67700" stroke-width="1" fill="none"></path></g><g transform="translate(439.20472201317625 214.99653054427972) rotate(55.43318846197135 64.18523508678413 -42.11487716952996)"><path d="M108.57 -58.39 C116.12 -67.61, 120.32 -76.7, 126.91 -84.88 M109.31 -58.96 C116.29 -67.25, 120.36 -74.6, 126.93 -84.76" stroke="#e67700" stroke-width="1" fill="none"></path></g><g transform="translate(439.20472201317625 214.99653054427972) rotate(55.43318846197135 64.18523508678413 -42.11487716952996)"><path d="M97.16 -75.45 C108.8 -78.82, 116.97 -81.98, 126.91 -84.88 M97.9 -76.02 C108.01 -79.44, 115.37 -81.88, 126.93 -84.76" stroke="#e67700" stroke-width="1" fill="none"></path></g></g><g stroke-linecap="round" transform="translate(603.9449462890625 250.248291015625) rotate(0 71.04217529296875 45.59039306640625)"><path d="M142.08 45.59 C142.08 47.42, 141.91 49.27, 141.57 51.09 C141.22 52.9, 140.7 54.72, 140.02 56.5 C139.34 58.28, 138.48 60.04, 137.47 61.76 C136.46 63.47, 135.27 65.16, 133.95 66.78 C132.62 68.4, 131.13 69.98, 129.51 71.49 C127.89 73, 126.11 74.45, 124.22 75.82 C122.33 77.19, 120.29 78.5, 118.15 79.72 C116.02 80.93, 113.75 82.07, 111.4 83.11 C109.05 84.15, 106.58 85.11, 104.06 85.96 C101.53 86.81, 98.9 87.57, 96.23 88.22 C93.57 88.87, 90.82 89.42, 88.04 89.86 C85.27 90.29, 82.44 90.63, 79.61 90.85 C76.77 91.07, 73.9 91.18, 71.04 91.18 C68.19 91.18, 65.31 91.07, 62.48 90.85 C59.65 90.63, 56.81 90.29, 54.04 89.86 C51.27 89.42, 48.52 88.87, 45.85 88.22 C43.18 87.57, 40.55 86.81, 38.03 85.96 C35.5 85.11, 33.03 84.15, 30.69 83.11 C28.34 82.07, 26.07 80.93, 23.93 79.72 C21.8 78.5, 19.76 77.19, 17.87 75.82 C15.97 74.45, 14.2 73, 12.58 71.49 C10.95 69.98, 9.46 68.4, 8.14 66.78 C6.81 65.16, 5.63 63.47, 4.62 61.76 C3.6 60.04, 2.75 58.28, 2.06 56.5 C1.38 54.72, 0.86 52.9, 0.52 51.09 C0.17 49.27, 0 47.42, 0 45.59 C0 43.76, 0.17 41.91, 0.52 40.1 C0.86 38.28, 1.38 36.46, 2.06 34.68 C2.75 32.9, 3.6 31.14, 4.62 29.42 C5.63 27.71, 6.81 26.03, 8.14 24.4 C9.46 22.78, 10.95 21.2, 12.58 19.69 C14.2 18.18, 15.97 16.73, 17.87 15.36 C19.76 13.99, 21.8 12.68, 23.93 11.47 C26.07 10.25, 28.34 9.11, 30.69 8.07 C33.03 7.03, 35.5 6.07, 38.03 5.22 C40.55 4.37, 43.18 3.61, 45.85 2.96 C48.52 2.31, 51.27 1.76, 54.04 1.32 C56.81 0.89, 59.65 0.55, 62.48 0.33 C65.31 0.11, 68.19 0, 71.04 0 C73.9 0, 76.77 0.11, 79.61 0.33 C82.44 0.55, 85.27 0.89, 88.04 1.32 C90.82 1.76, 93.57 2.31, 96.23 2.96 C98.9 3.61, 101.53 4.37, 104.06 5.22 C106.58 6.07, 109.05 7.03, 111.4 8.07 C113.75 9.11, 116.02 10.25, 118.15 11.47 C120.29 12.68, 122.33 13.99, 124.22 15.36 C126.11 16.73, 127.89 18.18, 129.51 19.69 C131.13 21.2, 132.62 22.78, 133.95 24.4 C135.27 26.03, 136.46 27.71, 137.47 29.42 C138.48 31.14, 139.34 32.9, 140.02 34.68 C140.7 36.46, 141.22 38.28, 141.57 40.1 C141.91 41.91, 142.08 43.76, 142.08 45.59" stroke="#c92a2a" stroke-width="1" fill="none"></path></g><g transform="translate(608.9449462890625 270.83868408203125) rotate(0 66 25)"><text x="66" y="18" font-family="Virgil, Segoe UI Emoji" font-size="20px" fill="#c92a2a" text-anchor="middle" style="white-space: pre;" direction="ltr">Encrypted </text><text x="66" y="43" font-family="Virgil, Segoe UI Emoji" font-size="20px" fill="#c92a2a" text-anchor="middle" style="white-space: pre;" direction="ltr">Wallet</text></g><g stroke-linecap="round" transform="translate(253.92633056640625 10) rotate(0 71.04217529296875 45.59039306640625)"><path d="M142.08 45.59 C142.08 47.42, 141.91 49.27, 141.57 51.09 C141.22 52.9, 140.7 54.72, 140.02 56.5 C139.34 58.28, 138.48 60.04, 137.47 61.76 C136.46 63.47, 135.27 65.16, 133.95 66.78 C132.62 68.4, 131.13 69.98, 129.51 71.49 C127.89 73, 126.11 74.45, 124.22 75.82 C122.33 77.19, 120.29 78.5, 118.15 79.72 C116.02 80.93, 113.75 82.07, 111.4 83.11 C109.05 84.15, 106.58 85.11, 104.06 85.96 C101.53 86.81, 98.9 87.57, 96.23 88.22 C93.57 88.87, 90.82 89.42, 88.04 89.86 C85.27 90.29, 82.44 90.63, 79.61 90.85 C76.77 91.07, 73.9 91.18, 71.04 91.18 C68.19 91.18, 65.31 91.07, 62.48 90.85 C59.65 90.63, 56.81 90.29, 54.04 89.86 C51.27 89.42, 48.52 88.87, 45.85 88.22 C43.18 87.57, 40.55 86.81, 38.03 85.96 C35.5 85.11, 33.03 84.15, 30.69 83.11 C28.34 82.07, 26.07 80.93, 23.93 79.72 C21.8 78.5, 19.76 77.19, 17.87 75.82 C15.97 74.45, 14.2 73, 12.58 71.49 C10.95 69.98, 9.46 68.4, 8.14 66.78 C6.81 65.16, 5.63 63.47, 4.62 61.76 C3.6 60.04, 2.75 58.28, 2.06 56.5 C1.38 54.72, 0.86 52.9, 0.52 51.09 C0.17 49.27, 0 47.42, 0 45.59 C0 43.76, 0.17 41.91, 0.52 40.1 C0.86 38.28, 1.38 36.46, 2.06 34.68 C2.75 32.9, 3.6 31.14, 4.62 29.42 C5.63 27.71, 6.81 26.03, 8.14 24.4 C9.46 22.78, 10.95 21.2, 12.58 19.69 C14.2 18.18, 15.97 16.73, 17.87 15.36 C19.76 13.99, 21.8 12.68, 23.93 11.47 C26.07 10.25, 28.34 9.11, 30.69 8.07 C33.03 7.03, 35.5 6.07, 38.03 5.22 C40.55 4.37, 43.18 3.61, 45.85 2.96 C48.52 2.31, 51.27 1.76, 54.04 1.32 C56.81 0.89, 59.65 0.55, 62.48 0.33 C65.31 0.11, 68.19 0, 71.04 0 C73.9 0, 76.77 0.11, 79.61 0.33 C82.44 0.55, 85.27 0.89, 88.04 1.32 C90.82 1.76, 93.57 2.31, 96.23 2.96 C98.9 3.61, 101.53 4.37, 104.06 5.22 C106.58 6.07, 109.05 7.03, 111.4 8.07 C113.75 9.11, 116.02 10.25, 118.15 11.47 C120.29 12.68, 122.33 13.99, 124.22 15.36 C126.11 16.73, 127.89 18.18, 129.51 19.69 C131.13 21.2, 132.62 22.78, 133.95 24.4 C135.27 26.03, 136.46 27.71, 137.47 29.42 C138.48 31.14, 139.34 32.9, 140.02 34.68 C140.7 36.46, 141.22 38.28, 141.57 40.1 C141.91 41.91, 142.08 43.76, 142.08 45.59" stroke="#e67700" stroke-width="1" fill="none"></path></g><g transform="translate(258.92633056640625 25.59039306640625) rotate(0 66 30)"><text x="66" y="14" font-family="Virgil, Segoe UI Emoji" font-size="16px" fill="#e67700" text-anchor="middle" style="white-space: pre;" direction="ltr">Encrypted </text><text x="66" y="34" font-family="Virgil, Segoe UI Emoji" font-size="16px" fill="#e67700" text-anchor="middle" style="white-space: pre;" direction="ltr">keychain </text><text x="66" y="54" font-family="Virgil, Segoe UI Emoji" font-size="16px" fill="#e67700" text-anchor="middle" style="white-space: pre;" direction="ltr">address</text></g></svg>